{"glyphs":{"0":{"ha":1292,"x_min":188,"x_max":1122,"o":"m 1121 414 q 996 136 1093 247 q 933 133 965 133 q 611 182 815 133 q 289 236 399 233 q 314 313 310 251 q 365 363 317 363 q 332 388 354 383 q 289 388 329 388 q 263 347 263 356 q 264 338 263 343 l 214 338 l 188 590 q 213 585 200 585 q 262 603 231 585 q 313 621 293 621 q 339 615 325 621 q 342 606 342 610 q 314 565 342 597 q 364 497 317 519 q 449 464 407 481 q 490 388 493 439 q 481 390 486 390 q 440 363 472 390 l 490 288 q 518 328 518 319 q 515 338 518 332 q 600 271 558 304 q 692 235 650 235 q 768 263 729 235 l 793 288 q 789 344 789 308 q 793 440 789 363 q 793 539 796 504 q 878 617 789 617 q 910 615 889 617 q 940 614 932 614 q 986 640 986 614 q 969 690 986 658 q 939 697 954 697 q 885 683 918 697 q 836 668 851 668 q 793 690 813 668 l 869 767 q 836 792 860 788 q 793 792 835 792 l 944 842 q 901 869 935 869 q 880 867 894 869 q 858 865 865 865 q 844 867 850 865 q 771 919 838 919 q 743 918 763 919 q 714 918 724 918 q 642 943 663 918 q 557 807 636 843 q 403 767 479 786 q 289 665 313 739 q 275 667 283 667 q 253 665 268 667 q 231 664 238 664 q 188 690 199 664 q 275 831 206 764 q 390 943 332 888 q 357 968 381 964 q 314 968 354 968 q 457 1072 365 1031 q 642 1119 544 1113 q 769 1067 679 1067 q 807 1068 782 1067 q 844 1069 832 1069 q 944 1044 911 1069 q 903 1013 944 1029 q 861 972 861 996 q 869 943 861 960 q 900 917 882 917 q 943 942 918 917 q 969 968 968 968 q 971 954 971 963 q 969 933 971 947 q 968 910 968 918 q 996 867 968 878 l 1071 893 q 1099 801 1074 865 q 1122 711 1122 743 q 1096 640 1122 672 q 1043 622 1069 632 q 996 590 1013 611 q 1050 563 1010 563 q 1076 565 1058 563 q 1103 567 1094 567 q 1121 565 1114 567 l 1121 464 q 1082 453 1104 453 q 1012 471 1057 453 q 953 489 967 489 q 919 414 917 489 q 956 386 919 413 q 994 368 979 368 q 1021 388 1011 368 l 1021 414 l 1121 414 m 465 690 q 467 681 467 686 q 440 640 467 672 l 415 715 q 425 718 419 718 q 465 690 433 718 m 818 60 l 718 85 l 818 85 l 818 60 m 667 10 l 592 10 q 593 19 593 14 q 567 60 593 28 l 515 60 q 564 86 522 86 q 583 85 569 86 q 603 85 596 85 q 667 111 651 85 q 669 101 669 106 q 642 60 669 92 q 669 19 669 28 q 667 10 669 14 z "},"1":{"ha":944,"x_min":204,"x_max":765,"o":"m 758 58 l 658 58 q 586 111 651 111 q 538 108 571 111 q 490 104 506 104 q 458 108 472 104 q 439 192 439 154 q 558 308 439 290 q 568 310 564 310 q 608 283 576 310 q 639 322 639 308 q 598 352 639 335 q 557 396 557 369 q 558 408 557 401 q 524 382 542 382 q 479 406 507 382 q 433 433 447 431 q 461 471 461 450 q 446 508 461 483 q 431 547 431 533 q 458 583 431 567 q 392 610 438 610 q 360 608 381 610 q 329 607 339 607 q 308 608 318 607 q 310 618 310 614 q 283 658 310 626 q 257 618 257 626 q 258 608 257 614 q 225 668 242 639 q 204 750 204 713 q 208 783 204 767 q 218 785 214 785 q 253 765 235 785 q 283 733 279 738 q 279 771 279 754 q 360 836 279 836 q 399 834 374 836 q 435 832 425 832 q 485 863 485 832 q 458 935 485 888 q 457 947 457 940 q 498 991 457 974 q 539 1019 539 1008 q 508 1060 539 1035 q 533 1058 519 1058 q 569 1060 544 1058 q 604 1061 593 1061 q 683 1035 658 1061 q 717 1060 693 1056 q 758 1060 718 1060 l 683 1010 q 711 978 711 996 q 697 947 711 968 q 682 915 682 925 q 708 885 682 899 q 750 911 740 911 q 758 910 754 911 q 733 846 761 861 q 672 833 722 839 q 608 808 629 829 q 672 785 629 789 q 733 772 722 778 q 758 708 761 757 q 735 651 735 681 q 750 590 735 632 q 765 522 765 547 q 758 483 765 503 q 731 488 744 488 q 668 467 703 488 q 608 433 621 438 q 707 394 658 414 q 758 308 758 367 q 733 282 758 307 q 708 239 708 257 q 733 208 708 221 l 758 208 q 763 188 763 199 q 749 142 763 171 q 736 99 736 113 q 758 58 736 76 m 583 33 q 538 6 581 6 q 508 7 528 6 q 478 8 488 8 q 458 7 467 8 l 433 33 q 508 61 460 61 q 583 33 557 61 z "},"2":{"ha":1189,"x_min":157,"x_max":1068,"o":"m 1060 181 q 997 71 1040 169 q 914 -15 961 -15 q 858 6 890 -15 q 553 -25 685 -25 q 283 31 374 -25 q 265 32 275 32 q 238 31 256 32 q 211 29 219 29 q 157 56 172 29 l 258 106 q 221 172 221 144 q 258 256 221 197 q 288 288 263 258 q 322 307 306 307 q 333 306 328 307 q 365 303 347 303 q 487 319 400 303 q 624 336 574 336 q 683 331 654 336 q 686 414 686 315 q 658 506 686 481 q 632 465 632 474 q 633 456 632 461 l 583 456 q 674 572 599 496 q 758 707 743 642 q 735 739 739 717 q 733 782 733 746 l 758 807 l 708 857 q 606 807 681 821 q 476 782 540 794 q 383 707 407 760 l 458 631 q 342 603 424 603 q 207 631 258 603 l 358 707 q 317 733 326 733 q 308 732 313 733 l 308 807 q 322 808 314 808 q 344 807 329 808 q 365 806 358 806 q 408 832 397 806 l 358 882 q 315 856 347 856 q 294 857 308 856 q 272 858 279 858 q 258 857 264 858 q 321 894 310 849 q 335 982 328 939 q 408 1032 349 1032 l 858 1032 q 907 968 861 989 q 983 932 946 950 l 858 857 q 960 806 876 806 q 977 806 965 806 q 994 806 989 806 q 1068 756 1068 806 q 1060 707 1068 736 q 1068 661 1068 682 q 1022 590 1068 617 q 933 556 1003 578 q 963 506 963 528 q 918 453 963 481 q 858 406 867 422 q 747 343 803 403 q 633 281 690 283 l 633 256 q 760 229 678 229 q 815 231 778 229 q 871 232 853 232 q 908 231 892 232 q 898 194 911 218 q 885 160 885 169 q 908 131 885 142 q 951 132 944 131 q 983 156 974 136 l 958 231 l 1060 231 l 1060 181 m 633 882 q 638 901 638 892 q 622 940 638 915 q 608 982 606 965 q 594 938 594 956 q 633 882 594 911 z "},"3":{"ha":1167,"x_min":101,"x_max":1092,"o":"m 557 876 q 507 825 532 850 q 432 788 468 788 q 397 796 414 788 q 339 843 379 843 q 294 828 317 843 q 263 796 271 813 l 263 903 q 399 874 311 874 q 458 876 418 874 q 517 878 497 878 q 557 876 539 878 m 1092 288 q 926 149 926 235 q 958 74 926 113 q 944 33 963 47 q 897 18 925 18 q 878 19 888 18 q 735 68 804 68 q 597 37 689 68 q 443 6 504 6 q 343 19 394 6 q 344 31 344 25 q 317 74 344 39 q 282 49 306 53 q 236 47 274 47 q 235 61 235 54 q 317 135 235 100 q 400 178 400 171 q 290 207 400 192 l 129 181 q 114 242 128 193 q 101 310 101 286 q 156 368 101 363 q 239 368 175 364 q 317 361 294 372 q 343 288 350 344 l 369 261 q 399 304 399 294 q 397 314 399 308 q 426 322 414 322 q 460 288 450 322 q 476 235 472 240 q 463 232 471 232 q 439 234 454 232 q 415 236 424 236 q 369 207 381 236 q 464 178 404 178 q 557 207 524 178 q 556 197 556 201 q 583 154 556 188 q 797 288 694 271 q 728 347 763 317 q 682 435 682 392 q 690 475 682 454 l 718 501 q 635 625 635 510 q 638 663 635 643 q 718 796 724 669 q 685 829 713 799 q 649 850 667 850 q 638 849 643 850 q 636 860 636 854 q 664 903 636 868 q 536 950 624 932 q 401 983 424 974 q 317 1063 335 1008 q 439 1063 378 1063 q 531 1117 518 1065 q 532 1106 532 1111 q 504 1063 532 1097 q 592 1027 549 1044 q 669 1010 636 1010 q 771 1036 714 1010 l 1013 929 q 985 872 997 908 q 964 824 974 836 q 904 796 946 801 q 861 824 871 824 q 851 822 857 824 l 825 796 l 878 742 q 839 688 869 724 q 815 643 815 661 q 851 582 815 618 l 958 582 l 958 528 q 943 526 951 526 q 920 528 936 526 q 897 531 904 531 q 851 501 863 531 l 878 421 q 856 425 867 425 q 812 406 833 425 q 771 368 790 386 q 876 332 814 332 q 935 337 897 332 q 992 342 974 342 q 1092 288 1057 342 m 583 608 l 557 528 l 531 608 l 583 608 m 210 822 q 156 742 196 739 q 210 822 169 825 m 825 876 q 796 919 796 910 q 797 929 796 924 l 771 929 l 771 903 l 797 903 q 764 875 783 875 q 719 902 746 875 q 690 929 693 929 l 744 849 q 789 850 782 849 q 825 876 814 856 z "},"4":{"ha":1078,"x_min":63,"x_max":996,"o":"m 996 332 q 874 331 935 332 q 769 282 807 322 q 768 272 768 278 q 794 232 768 264 l 844 232 l 794 106 q 761 154 778 131 q 701 189 733 189 q 668 181 686 189 l 643 156 q 669 115 669 124 q 668 106 669 111 q 601 162 663 129 q 539 236 539 194 q 542 257 539 246 q 551 256 547 256 q 593 282 560 256 q 560 307 583 303 q 517 307 557 307 q 490 267 490 275 q 492 257 490 263 q 393 311 454 311 q 365 307 379 311 q 339 267 339 275 q 340 257 339 263 l 265 257 q 267 267 267 263 q 239 307 267 275 l 164 257 l 114 332 l 189 383 l 63 483 q 108 556 90 503 q 139 632 129 619 q 214 661 163 667 l 214 686 q 225 688 219 688 q 260 667 242 688 q 290 635 285 639 q 303 679 303 650 q 301 712 303 689 q 299 746 299 735 q 365 813 299 807 l 340 838 q 651 1039 369 1039 q 844 1014 749 1039 q 843 969 843 993 q 844 903 843 947 q 846 839 846 860 q 819 686 846 740 q 801 688 811 688 q 775 686 793 688 q 747 685 757 685 q 693 711 708 685 l 643 661 q 733 633 672 633 q 775 635 747 633 q 817 636 803 636 q 844 635 832 636 l 794 585 q 874 506 818 551 q 956 433 936 456 q 996 332 994 388 m 643 31 l 542 56 l 643 56 l 643 31 m 517 510 l 517 761 l 365 510 l 517 510 m 365 408 l 239 408 q 271 382 254 382 q 303 399 281 382 q 342 417 326 417 q 365 408 353 417 z "},"5":{"ha":1064,"x_min":56,"x_max":999,"o":"m 989 415 l 913 339 q 954 313 944 313 q 964 314 958 313 l 938 163 l 888 213 q 849 192 871 192 q 804 203 835 192 q 758 214 774 214 q 711 188 731 214 q 684 163 711 165 q 631 157 657 160 q 610 113 604 149 q 664 85 625 85 q 692 87 674 85 q 718 89 710 89 q 736 88 728 89 q 625 60 690 60 q 485 77 579 60 q 347 94 390 94 q 282 88 311 94 l 282 61 l 181 163 q 154 122 154 131 q 156 113 154 117 l 81 163 l 232 213 q 151 240 207 240 q 116 239 140 240 q 79 238 92 238 q 56 239 65 238 l 332 264 q 346 225 328 239 q 390 211 364 211 q 408 213 400 211 l 483 213 q 485 171 483 178 q 510 138 489 147 q 528 139 517 139 q 554 138 536 139 q 581 136 572 136 q 635 163 621 136 q 582 204 582 183 q 623 252 582 217 q 664 319 664 288 q 661 339 664 329 l 686 364 q 540 490 640 496 q 349 440 444 465 q 156 490 228 413 q 115 464 124 464 q 106 465 111 464 q 189 525 114 510 q 282 592 264 540 q 215 618 261 618 q 183 617 204 618 q 151 615 163 615 q 131 617 140 615 l 131 667 q 174 668 167 667 q 207 692 197 672 q 157 782 163 714 q 156 894 157 838 q 233 931 194 913 q 282 994 279 953 l 711 994 q 772 1049 714 1049 q 816 1045 786 1049 q 860 1042 846 1042 q 888 1046 876 1042 q 894 1018 894 1029 q 863 986 894 996 q 813 969 818 974 q 803 971 807 971 q 761 944 793 971 q 816 920 782 931 q 863 899 850 910 q 888 843 882 882 l 888 793 l 635 793 q 656 833 656 814 q 638 875 656 850 q 610 919 615 907 q 565 846 603 876 q 510 793 517 806 q 494 792 503 792 q 473 793 488 792 q 451 794 458 794 q 408 768 418 794 q 410 754 410 763 q 408 732 410 747 q 407 710 407 717 q 433 667 407 678 q 522 681 486 681 q 610 667 557 681 q 611 625 610 632 q 635 592 615 601 q 650 593 642 593 q 672 592 657 593 q 693 590 686 590 q 736 617 726 590 l 686 692 q 781 597 696 624 q 926 553 853 575 q 989 415 999 514 m 610 -39 l 535 -14 l 610 -14 l 610 -39 m 736 894 q 711 924 711 906 q 724 958 711 933 q 736 994 738 982 q 704 947 742 956 q 635 944 693 944 l 711 869 l 736 894 z "},"6":{"ha":1149,"x_min":110,"x_max":1046,"o":"m 1043 392 q 1015 336 1015 367 q 1031 278 1015 317 q 1046 219 1046 239 q 1018 164 1046 189 q 864 113 958 113 q 828 114 853 113 q 792 114 804 114 q 639 64 699 114 q 647 68 647 65 q 586 72 647 72 q 418 64 501 72 q 319 39 319 54 q 388 13 319 26 q 385 22 385 18 q 413 64 385 31 l 336 139 q 310 99 310 107 q 311 89 310 93 q 264 79 283 79 q 210 126 222 79 q 194 214 203 169 q 135 265 181 261 l 110 417 l 160 417 q 158 407 158 411 q 185 367 158 399 q 249 394 194 388 q 286 442 292 400 q 243 468 275 468 q 222 467 236 468 q 200 465 207 465 q 185 467 192 465 l 286 518 q 218 553 251 535 q 142 571 178 571 q 110 568 126 571 l 110 643 q 150 640 131 640 q 311 719 249 640 q 271 746 279 746 q 261 744 265 746 q 280 799 269 771 q 311 846 290 828 l 236 946 q 311 976 260 976 q 389 965 338 976 q 457 954 440 954 q 492 985 492 954 q 463 1072 492 1013 q 575 1072 490 1068 q 688 1067 650 1076 q 765 997 744 1051 q 822 1026 799 1026 q 878 985 843 1026 q 950 944 914 944 q 967 946 958 944 l 917 896 q 963 865 935 875 q 1018 846 992 854 q 1022 819 1022 829 q 988 793 1022 793 q 965 794 981 793 q 943 794 950 794 q 892 769 901 794 q 614 846 754 769 q 567 856 588 856 q 492 806 524 856 q 438 719 464 763 l 463 694 l 438 669 q 467 644 449 644 q 501 658 476 644 q 539 669 525 671 l 639 568 l 690 618 q 658 649 686 624 q 638 683 638 667 q 639 694 638 689 l 790 669 l 715 618 q 857 593 757 594 q 967 543 932 592 q 968 500 967 507 q 993 467 972 476 l 1018 467 q 1019 457 1019 463 q 993 417 1019 449 q 1033 390 1025 390 q 1043 392 1038 390 m 765 164 l 765 190 q 688 308 688 207 q 689 351 688 322 q 690 396 690 381 q 664 492 690 461 q 614 439 665 439 q 576 442 603 439 q 538 446 550 446 q 513 442 524 446 q 517 413 517 426 q 411 338 517 338 q 372 339 397 338 q 338 340 347 340 q 307 329 307 340 q 311 315 307 324 q 368 342 326 343 q 438 340 439 342 q 492 281 492 351 q 483 224 492 251 l 483 224 q 488 240 485 226 l 513 240 q 540 199 540 208 q 539 190 540 194 l 564 215 q 679 215 622 215 q 765 164 753 213 z "},"7":{"ha":1078,"x_min":110,"x_max":996,"o":"m 969 1014 l 869 1039 l 969 1039 l 969 1014 m 793 1014 q 726 1017 736 1014 q 693 1064 689 1025 q 715 1068 704 1068 q 793 1014 754 1068 m 490 1064 q 432 1038 483 1038 q 397 1039 421 1038 q 361 1040 372 1040 q 339 1039 349 1040 l 339 1089 l 490 1064 m 996 863 q 768 661 854 715 q 742 547 743 629 q 718 433 742 464 l 642 433 q 642 476 642 474 q 617 510 638 500 q 590 454 590 494 q 592 428 590 446 q 593 401 593 410 q 592 383 593 390 l 617 358 q 650 382 626 379 q 693 383 651 383 q 657 268 675 325 q 592 181 635 200 l 490 181 l 542 232 q 474 258 521 258 q 442 257 464 258 q 411 256 421 256 q 390 257 399 256 q 383 283 383 272 q 424 325 383 308 q 465 358 465 342 q 479 360 472 360 q 501 358 486 360 q 524 356 517 356 q 567 383 556 356 q 479 435 508 383 q 440 535 460 485 q 569 564 493 557 q 693 585 654 572 q 651 611 660 611 q 642 610 647 611 l 743 686 q 690 719 731 699 q 642 761 656 738 q 601 735 610 735 q 594 738 597 735 q 590 746 590 742 q 610 781 590 763 q 642 811 639 807 q 515 839 601 839 q 462 838 496 839 q 415 836 428 836 q 390 838 400 836 l 289 938 q 240 892 265 915 q 214 838 211 864 q 159 886 208 850 q 110 950 110 922 q 113 963 110 957 q 192 990 138 990 q 228 989 204 990 q 264 988 253 988 q 289 989 278 988 q 290 946 289 953 q 314 913 294 922 q 400 967 328 967 q 453 963 417 967 q 506 960 489 960 q 542 963 526 960 q 539 954 539 958 q 567 913 539 944 q 751 968 619 968 q 969 938 853 968 l 894 863 q 924 838 906 838 q 958 851 933 838 q 996 863 982 864 m 517 131 q 518 121 518 125 q 497 86 518 104 q 465 56 468 60 l 365 56 q 433 90 378 71 q 517 131 494 114 z "},"8":{"ha":1138,"x_min":126,"x_max":1061,"o":"m 1060 313 q 978 200 1061 231 q 832 161 906 181 q 875 135 843 135 q 898 136 883 135 q 919 138 913 138 q 933 136 928 138 l 832 35 l 732 111 q 633 58 697 58 q 606 61 619 58 l 581 86 q 557 53 561 76 q 556 10 556 46 q 151 213 293 10 l 228 288 q 185 314 217 314 q 162 313 176 314 q 140 311 147 311 q 126 313 132 311 l 126 364 q 140 365 132 365 q 162 363 147 365 q 185 361 176 361 q 228 389 217 361 q 200 432 200 399 q 201 453 200 439 q 203 475 203 468 q 201 489 203 483 l 379 489 q 368 440 368 464 q 443 319 368 385 q 556 213 540 236 q 661 253 608 232 q 732 338 721 283 l 707 464 q 721 465 713 465 q 742 464 728 465 q 764 463 757 463 q 807 489 797 463 q 719 518 775 518 q 631 489 663 518 q 632 499 632 494 q 606 540 632 507 q 538 504 571 522 q 461 486 497 486 q 429 489 446 486 q 472 520 431 504 q 513 561 513 536 q 504 590 513 574 l 479 615 l 454 590 q 351 667 435 649 q 214 692 282 679 q 151 792 146 715 q 228 918 233 799 q 330 956 275 928 q 429 994 385 985 q 361 1021 408 1021 q 330 1019 351 1021 q 299 1018 308 1018 q 278 1019 288 1018 q 417 1100 306 1100 q 497 1095 443 1100 q 578 1090 551 1090 q 631 1094 608 1090 q 632 1053 631 1060 q 656 1019 636 1029 q 738 1085 679 1085 q 824 1065 765 1085 q 908 1044 883 1046 l 1010 893 l 883 843 q 938 815 899 815 q 964 817 946 815 q 992 818 982 818 q 1010 817 1001 818 l 958 767 q 968 724 968 744 q 938 649 968 692 q 883 565 893 585 q 992 510 957 568 q 1035 389 1004 490 q 986 357 1026 371 q 958 313 953 344 q 988 288 971 288 q 1023 301 999 288 q 1060 313 1047 315 m 707 692 q 681 736 679 701 q 681 792 682 792 q 556 918 656 892 q 438 840 547 840 q 404 843 421 840 q 435 847 422 847 q 481 808 474 847 q 485 736 482 772 q 529 692 490 694 q 656 717 564 688 q 683 675 683 685 q 681 665 683 671 l 707 692 z "},"9":{"ha":1199,"x_min":158,"x_max":1100,"o":"m 1094 556 q 1099 507 1099 531 q 1019 304 1099 389 q 992 306 1004 306 q 893 253 928 306 q 943 222 897 249 q 975 181 975 204 q 968 153 975 168 q 865 82 917 117 q 756 44 801 44 q 717 51 735 44 l 692 26 l 640 76 q 597 50 631 50 q 576 51 590 50 q 554 53 561 53 q 540 51 546 53 l 514 76 q 483 50 500 50 q 451 65 472 50 q 419 79 431 79 q 389 51 403 79 l 364 128 q 417 110 390 118 q 464 76 447 97 q 499 135 499 103 q 494 167 499 146 q 489 199 489 188 q 514 253 489 228 l 565 178 q 682 269 617 199 q 792 379 764 358 q 751 407 760 407 q 742 404 747 407 l 767 431 q 653 418 739 431 q 518 406 568 406 q 389 431 442 406 l 389 481 q 399 479 393 479 q 439 506 407 479 q 388 532 415 532 q 333 515 371 532 q 272 497 296 497 q 238 506 254 497 q 197 590 235 539 q 158 668 158 640 q 186 732 158 699 q 160 774 160 765 q 161 783 160 778 l 213 783 q 210 774 210 778 q 238 732 210 765 q 264 775 264 743 q 263 798 264 783 q 261 819 261 813 q 263 833 261 828 q 210 869 233 840 q 186 931 186 899 q 213 985 186 963 q 299 1036 235 1036 q 387 1023 328 1036 q 467 1010 446 1010 q 517 1061 517 1010 q 514 1086 517 1072 l 439 1086 l 439 1136 l 742 1136 q 740 1126 740 1132 q 767 1086 740 1118 l 843 1086 l 843 1061 l 742 1061 q 743 1071 743 1065 q 717 1111 743 1079 q 638 1056 713 1088 q 563 997 563 1024 q 615 935 563 971 l 692 935 q 688 914 688 924 q 706 872 688 892 q 742 833 724 851 q 833 860 783 860 q 951 836 875 860 q 1069 808 1033 811 l 1019 758 q 1053 733 1029 739 q 1094 732 1058 732 l 1094 657 q 1085 658 1090 658 q 1044 632 1076 658 q 1076 604 1053 614 q 1100 579 1100 594 q 1094 556 1100 569 m 464 329 q 468 308 468 318 q 450 266 468 286 q 414 228 432 246 q 404 226 408 226 q 364 253 396 226 q 319 228 347 228 q 276 238 303 228 q 238 253 257 246 q 233 274 233 264 q 282 317 233 307 q 364 329 322 324 q 361 319 361 324 q 389 279 361 311 q 419 311 393 282 q 454 331 438 331 q 464 329 458 331 m 792 732 l 742 732 q 743 760 743 747 q 686 860 743 832 q 561 885 651 878 q 439 910 471 893 q 515 867 514 910 q 490 775 514 875 q 514 682 474 713 q 590 656 550 656 q 692 688 629 656 q 792 732 767 726 z "}," ":{"ha":772,"x_min":0,"x_max":0,"o":""},"!":{"ha":611,"x_min":174,"x_max":539,"o":"m 526 904 q 539 864 539 882 q 468 788 539 821 q 397 746 397 754 q 476 703 397 728 q 489 644 489 669 q 444 578 489 601 q 354 547 436 574 q 275 501 296 529 q 354 474 300 474 q 391 476 367 474 q 426 478 415 478 q 451 476 440 478 q 453 467 453 471 q 426 425 453 457 q 350 450 396 450 q 275 425 304 450 q 199 750 199 590 q 224 904 199 836 q 183 932 192 932 q 174 929 179 932 q 254 956 197 956 q 286 954 265 956 q 317 953 307 953 q 401 1006 389 953 l 174 1056 q 263 1082 213 1082 q 356 1067 294 1082 q 444 1053 417 1053 q 476 1056 461 1053 l 526 904 m 501 299 q 374 213 469 240 q 199 174 286 193 l 199 249 q 239 229 219 229 q 281 246 256 229 q 325 274 313 269 l 275 325 l 501 299 m 501 72 q 410 39 456 56 q 296 17 346 17 q 250 22 272 17 l 300 72 l 275 97 q 328 138 288 138 q 426 97 369 138 l 451 122 l 501 72 z "},"#":{"ha":724,"x_min":85,"x_max":697,"o":"m 613 981 l 508 939 l 488 981 l 613 981 m 697 729 q 674 692 693 719 q 660 657 660 671 q 676 624 660 640 q 618 622 679 624 q 571 646 583 622 q 582 594 582 617 q 542 538 582 556 q 465 511 504 525 q 426 468 426 497 q 446 414 426 447 q 515 433 468 415 q 582 450 563 450 q 635 393 624 450 q 578 418 603 418 q 515 384 556 418 q 442 350 475 350 q 425 351 433 350 q 446 289 425 299 q 488 310 475 314 q 508 282 504 301 q 508 247 508 281 q 467 268 496 243 q 444 231 443 258 q 446 183 444 182 l 382 206 q 421 267 421 231 q 403 331 421 288 q 382 393 385 374 q 328 429 375 419 q 257 457 272 442 q 242 421 242 436 q 271 374 242 406 q 299 310 300 342 q 272 307 285 307 q 197 357 217 307 q 174 450 186 404 q 108 500 157 500 q 89 499 100 500 l 278 540 q 222 579 235 547 q 194 646 196 643 q 147 668 181 668 q 89 667 86 667 q 85 692 85 681 q 107 727 85 715 q 151 750 129 739 q 221 749 186 750 q 299 771 276 749 q 257 792 268 796 q 268 833 268 821 q 257 876 268 847 q 324 876 253 876 q 382 854 365 878 l 319 813 q 369 777 346 813 q 414 742 392 742 q 446 750 428 742 q 468 808 468 768 q 467 876 467 879 l 592 854 q 549 808 585 850 q 488 771 524 776 q 568 750 514 750 q 592 750 576 750 q 615 750 608 750 q 697 729 671 750 m 425 519 q 398 579 411 550 q 354 608 385 608 q 319 603 340 608 q 343 561 343 592 q 319 519 343 531 q 372 535 346 535 q 425 519 397 535 z "},"$":{"ha":847,"x_min":58,"x_max":813,"o":"m 708 751 q 668 729 706 728 q 604 731 601 729 l 604 772 q 708 751 683 747 m 813 249 q 792 250 801 250 q 743 199 754 250 q 708 122 731 136 q 528 82 640 90 q 351 81 496 81 q 338 78 344 78 q 274 110 310 78 q 226 143 238 142 q 285 144 224 143 q 331 122 318 144 q 378 144 343 144 q 436 143 439 143 q 492 103 453 110 q 561 101 526 103 l 646 185 q 554 196 583 188 q 478 249 496 210 q 429 221 467 244 q 376 203 399 203 q 351 206 364 203 q 325 250 351 235 q 289 290 294 267 q 211 269 256 269 q 58 332 121 269 l 58 374 q 153 393 106 393 q 372 269 289 393 q 396 347 396 294 q 394 436 394 442 q 314 476 367 463 q 226 500 269 488 q 206 542 231 511 q 79 667 129 569 q 171 693 125 681 q 279 710 233 710 q 372 689 333 710 q 396 746 396 706 q 394 814 394 817 q 367 835 386 832 q 331 835 365 835 q 278 750 331 750 q 188 775 254 750 q 100 793 126 799 l 79 793 q 110 846 90 829 q 164 876 119 854 l 142 897 q 296 965 219 932 q 415 1086 392 1018 l 499 1086 q 499 1051 499 1053 q 478 1024 496 1032 l 519 982 q 576 1006 547 1006 q 654 971 608 1006 q 729 919 714 925 q 750 869 750 914 q 750 859 750 867 q 750 847 750 851 q 788 789 750 789 q 813 793 799 789 l 792 731 l 708 856 q 688 814 683 826 q 628 819 664 819 q 499 793 549 819 q 494 750 494 771 q 582 604 494 647 q 610 608 597 608 q 672 590 638 608 q 729 563 718 565 q 707 529 707 536 q 743 499 707 499 q 792 500 799 499 q 794 471 794 486 q 778 401 794 429 q 729 374 760 369 q 708 415 733 386 q 688 353 688 406 q 750 331 703 332 q 813 311 797 331 l 813 249 m 478 -25 l 436 -25 q 478 39 447 40 l 478 -25 m 708 897 l 688 876 q 582 897 663 874 l 582 856 l 708 897 m 561 249 l 561 269 q 582 314 582 288 q 563 365 582 340 q 519 394 544 389 l 519 249 l 561 249 z "},"%":{"ha":1404,"x_min":44,"x_max":1306,"o":"m 967 1071 q 885 1025 936 1025 q 863 1029 874 1025 q 950 1072 901 1072 q 967 1071 958 1072 m 443 1029 l 381 1050 l 443 1050 l 443 1029 m 1282 274 q 1222 253 1265 253 q 1199 254 1214 253 q 1175 254 1182 254 q 1114 211 1119 254 l 1072 253 q 1049 209 1069 239 q 1029 163 1029 179 q 1051 128 1029 143 q 946 107 971 103 q 925 149 921 136 q 967 128 938 153 l 989 149 q 893 211 982 211 q 857 210 881 211 q 822 210 833 210 q 764 244 764 210 q 779 294 764 263 q 736 317 749 319 l 736 358 q 779 379 749 354 q 736 400 749 404 l 736 421 l 779 421 q 800 379 775 408 q 844 408 828 379 q 883 442 860 438 q 859 488 882 471 q 808 506 836 506 q 757 483 776 506 q 779 525 754 496 q 801 529 789 529 q 883 483 851 529 q 908 464 893 464 q 937 474 917 464 q 967 483 957 485 q 923 419 936 479 q 863 358 910 360 q 951 310 890 350 q 1036 274 1004 274 q 1114 317 1075 274 q 1111 335 1111 322 q 1114 371 1111 343 q 1117 414 1117 399 q 1072 483 1117 478 l 1010 483 q 989 525 1013 496 l 925 525 q 925 561 925 560 q 904 589 922 581 l 883 589 q 881 607 881 600 q 899 628 881 621 q 925 651 918 636 q 989 631 950 631 q 1051 651 1026 631 q 1050 604 1050 654 q 1072 568 1050 576 q 1140 590 1093 590 q 1219 589 1222 589 q 1269 471 1228 549 q 1306 360 1306 404 q 1282 274 1306 319 m 1219 169 q 1156 149 1208 149 l 1156 211 q 1219 169 1221 200 m 863 819 l 779 735 q 799 708 796 728 q 800 672 800 706 q 758 647 796 668 q 731 611 731 632 q 736 589 731 601 q 694 568 725 593 l 715 547 q 667 525 707 536 q 611 501 626 514 q 590 442 585 482 q 611 400 586 429 q 653 421 640 425 q 622 363 660 381 q 547 343 585 353 q 506 306 506 331 q 526 253 506 285 q 549 294 551 283 l 569 294 q 572 276 572 285 q 539 236 572 253 q 485 211 513 224 l 464 232 q 443 190 439 203 l 422 190 q 414 225 414 210 q 451 276 414 254 q 506 317 499 304 l 526 338 q 485 358 497 363 q 592 528 533 406 q 693 713 657 665 q 863 819 763 803 m 611 861 l 549 799 q 590 778 578 774 q 569 735 594 765 q 592 699 592 726 q 590 651 590 649 q 508 593 575 611 q 443 525 447 576 q 344 526 449 526 q 254 504 285 528 q 213 525 225 529 l 254 568 q 213 589 225 593 q 263 642 224 596 q 328 678 292 678 q 360 672 342 678 q 464 568 381 589 q 485 610 489 597 q 429 649 443 615 q 401 714 403 713 q 432 769 432 739 q 383 858 432 810 q 296 924 346 896 q 247 832 269 894 q 206 749 224 769 q 108 714 174 714 q 82 708 92 708 q 63 746 63 708 q 44 799 61 789 q 103 839 67 804 q 171 861 132 865 l 192 840 q 213 882 217 869 q 165 904 200 904 q 108 903 106 904 q 125 956 124 911 q 144 993 125 993 q 171 988 156 993 q 192 944 167 975 l 254 988 q 275 944 250 975 q 299 974 290 951 q 319 990 307 990 q 339 988 326 990 l 422 988 q 443 944 418 975 q 507 957 479 957 q 590 861 588 957 l 611 861 m 1219 463 l 1176 525 q 1193 493 1193 517 q 1190 466 1193 482 q 1186 449 1186 450 q 1186 449 1186 449 q 1197 463 1189 450 l 1219 463 m 192 799 q 158 819 178 819 q 117 800 142 819 q 86 778 88 778 q 113 800 99 800 q 140 788 122 800 q 165 775 157 775 q 192 799 179 775 z "},"&":{"ha":1233,"x_min":167,"x_max":1153,"o":"m 1153 118 q 1122 113 1138 113 q 1074 122 1103 113 q 1031 132 1044 132 q 985 118 1008 132 q 964 160 989 129 q 917 161 967 160 q 881 139 889 161 l 881 118 l 860 118 q 881 160 856 129 q 856 181 871 181 q 827 169 847 181 q 796 160 807 158 q 585 203 708 203 q 419 181 497 203 q 508 158 449 157 q 607 160 613 158 l 607 118 q 561 117 610 117 q 524 139 532 115 q 482 117 508 107 q 440 139 461 128 q 419 96 421 143 l 376 139 q 356 96 351 108 l 314 96 l 376 160 q 318 182 360 182 q 251 181 247 181 q 231 222 256 192 q 207 217 217 217 q 181 243 189 217 q 167 285 171 281 l 167 328 q 210 349 179 324 q 169 389 169 364 q 199 442 169 406 q 231 494 228 479 q 258 527 244 493 q 283 561 272 561 q 314 536 296 561 q 340 622 340 576 q 336 674 340 636 q 335 725 333 706 l 293 725 l 293 831 q 340 829 290 829 q 376 851 368 829 l 376 893 l 482 893 q 503 851 478 881 q 544 872 515 847 l 544 914 l 565 914 l 565 851 q 524 831 554 856 q 521 803 521 817 q 536 740 521 774 q 565 683 551 713 q 588 682 578 682 q 671 725 642 682 q 701 686 683 686 q 749 717 714 686 q 804 749 783 749 q 817 746 811 749 q 723 790 797 789 q 628 831 649 792 l 733 872 q 708 940 740 918 q 640 967 693 950 q 586 999 597 979 l 775 976 q 796 935 771 965 q 819 940 810 940 q 844 914 838 940 q 860 872 856 876 q 824 872 825 872 q 798 853 804 869 q 792 828 792 838 q 836 792 792 799 q 901 768 890 783 l 901 725 q 860 657 875 708 q 831 571 839 586 q 754 515 806 526 q 676 500 717 508 q 607 474 636 492 q 765 435 649 436 q 922 390 881 433 q 943 418 939 399 q 943 453 943 419 q 983 429 967 429 q 1022 465 1000 429 q 1068 515 1047 507 l 1047 515 l 1047 536 l 1068 536 q 1072 513 1072 524 q 1006 432 1072 451 l 1047 369 q 1006 326 1006 369 q 1006 313 1006 322 q 1006 300 1006 304 q 964 243 1006 251 q 1067 185 988 219 q 1153 118 1133 156 m 607 369 q 561 392 585 368 q 524 432 543 413 q 481 393 514 413 q 456 356 456 376 q 461 328 456 343 q 501 293 472 307 q 544 264 535 275 q 577 310 540 296 q 614 344 614 325 q 607 369 614 354 z "},"'":{"ha":521,"x_min":122,"x_max":376,"o":"m 324 1103 l 249 1128 l 324 1128 l 324 1103 m 375 1053 q 374 1024 374 1040 q 375 983 374 1011 q 376 942 376 956 q 350 850 376 881 q 375 807 375 835 q 365 764 375 790 q 350 724 357 744 q 147 926 200 815 q 168 922 158 922 q 210 940 190 922 q 249 976 231 958 l 122 1078 l 199 1078 q 196 1068 196 1072 q 224 1028 196 1060 q 290 1054 244 1054 q 322 1053 301 1054 q 354 1051 343 1051 q 375 1053 365 1051 m 249 624 l 122 649 l 199 775 q 249 699 235 778 l 224 674 q 250 633 250 642 q 249 624 250 628 z "},"(":{"ha":463,"x_min":67,"x_max":388,"o":"m 386 83 q 347 43 372 43 q 292 65 332 43 q 229 88 253 88 q 208 83 218 88 l 268 122 q 178 168 244 157 q 110 222 119 178 l 149 182 q 168 208 165 190 q 168 242 168 210 q 111 278 161 275 q 69 321 67 281 l 89 340 q 68 375 68 349 q 69 419 69 422 l 149 419 q 168 381 144 408 q 208 400 181 376 q 210 443 208 397 q 189 479 210 471 l 149 479 l 168 538 l 69 578 l 149 617 q 125 667 139 625 q 93 701 115 701 q 69 696 83 701 q 85 739 76 717 q 110 775 93 761 q 89 835 89 785 q 115 854 97 851 q 149 854 117 854 q 169 839 157 839 q 200 853 181 839 q 228 875 228 874 q 193 896 218 878 q 160 910 174 910 q 129 894 144 910 l 149 993 q 243 933 193 933 q 288 953 268 933 l 307 974 q 281 993 300 990 q 247 993 279 993 q 228 1032 251 1004 l 168 1032 l 189 1072 q 240 1019 210 1019 q 294 1039 256 1019 q 357 1058 333 1058 q 386 1053 372 1058 q 365 950 388 1007 q 326 854 346 903 l 347 835 q 315 765 315 765 q 247 736 294 736 q 226 704 226 710 q 258 676 226 678 q 307 676 282 676 l 307 617 q 268 597 296 621 q 311 504 311 569 q 288 400 311 453 q 247 381 276 404 q 308 322 278 351 q 347 242 344 288 l 247 182 q 283 163 261 163 q 347 182 286 163 q 336 151 351 165 q 307 122 321 136 l 386 83 z "},")":{"ha":447,"x_min":96,"x_max":399,"o":"m 392 544 l 332 544 q 332 578 332 576 q 313 604 329 597 q 274 585 301 608 q 271 563 271 572 q 323 515 271 529 q 375 468 375 501 q 372 446 375 458 l 233 407 q 299 386 254 385 q 372 388 376 386 l 372 328 q 285 296 335 310 q 194 268 218 276 q 247 249 210 249 q 264 249 253 249 q 279 249 275 249 q 332 229 317 249 q 282 208 331 214 q 233 183 233 201 q 254 150 233 171 q 279 169 261 167 q 313 169 281 169 q 235 126 283 126 q 214 129 224 126 q 167 186 201 163 q 96 208 132 210 q 122 279 106 226 q 154 347 136 325 q 135 407 135 357 l 254 486 l 154 544 q 274 624 203 606 q 247 643 265 640 q 214 644 246 644 l 274 703 q 219 729 263 707 q 161 746 186 746 q 135 743 149 746 q 133 788 135 740 q 154 822 133 814 q 132 839 151 836 q 113 850 113 842 q 115 861 113 854 l 115 940 q 140 938 128 938 q 200 953 168 938 q 254 981 226 967 l 214 1019 l 313 1000 l 293 901 l 254 940 q 214 861 238 926 q 278 836 228 858 q 343 818 315 818 q 372 822 357 818 q 371 767 372 825 q 392 724 371 735 l 332 683 q 368 628 338 656 q 399 578 399 601 q 392 544 399 564 m 293 90 q 231 47 268 88 q 168 7 194 7 q 115 31 144 7 q 181 72 125 72 q 206 71 189 72 q 229 71 222 71 q 293 90 274 71 z "},"*":{"ha":785,"x_min":135,"x_max":685,"o":"m 685 867 q 590 816 658 838 q 496 763 521 794 l 622 679 q 576 596 576 647 q 579 574 576 585 q 553 564 567 564 q 473 619 524 564 q 406 675 422 675 q 369 615 382 675 q 283 574 335 574 q 224 594 250 574 q 285 628 285 601 q 267 672 285 640 q 249 719 249 703 q 286 763 249 746 q 193 811 271 776 q 135 869 135 836 q 160 931 135 894 q 206 938 182 938 q 291 918 238 938 q 369 899 344 899 q 413 910 392 899 q 579 889 542 885 q 604 933 586 896 q 638 956 615 956 q 664 951 649 956 l 622 910 l 685 867 m 328 825 l 328 846 l 244 846 l 328 825 z "},",":{"ha":521,"x_min":82,"x_max":414,"o":"m 414 40 q 313 -68 396 -1 q 213 -187 231 -135 q 194 -186 204 -186 q 167 -187 186 -186 q 140 -189 149 -189 q 86 -162 101 -189 l 86 -61 q 142 -49 110 -49 q 208 -57 165 -49 q 267 -65 250 -65 q 317 -1 317 -65 q 314 40 317 17 q 219 58 267 50 q 111 65 167 68 q 88 136 92 92 q 86 217 86 149 q 143 197 114 197 q 213 242 188 197 q 157 267 200 267 q 146 267 153 267 q 136 267 139 267 q 86 318 82 267 q 185 369 121 369 q 213 368 199 369 q 244 319 231 361 q 289 292 257 286 q 314 336 314 300 q 313 356 314 343 q 311 375 311 369 q 331 403 311 403 q 364 393 343 403 q 337 340 361 376 q 313 285 313 304 q 339 242 313 261 q 379 268 371 268 q 388 265 385 268 q 390 257 390 263 q 364 217 390 249 q 406 190 396 190 q 414 192 410 190 l 414 115 q 404 117 410 117 q 369 97 388 117 q 339 65 343 68 q 372 42 349 46 q 414 40 379 40 z "},".":{"ha":489,"x_min":104,"x_max":432,"o":"m 432 326 q 422 328 426 328 q 382 300 414 328 q 404 253 385 276 q 424 219 424 229 q 382 175 424 201 q 357 167 369 167 q 319 184 342 167 q 286 201 296 201 q 256 175 271 201 l 256 124 l 206 124 q 207 133 207 129 q 179 175 207 142 q 139 147 147 147 q 129 149 135 147 q 150 206 150 176 q 104 275 150 249 q 188 335 115 315 q 281 376 268 358 q 279 367 279 371 q 306 326 279 358 l 432 376 l 432 326 m 432 74 q 350 74 392 74 q 306 124 303 76 l 432 124 l 432 74 m 231 326 q 232 314 232 319 q 205 279 232 293 q 178 257 178 265 q 206 225 178 246 q 201 244 201 235 q 217 285 201 260 q 231 326 232 310 z "},":":{"ha":458,"x_min":58,"x_max":389,"o":"m 188 831 l 111 857 l 188 857 l 188 831 m 389 604 q 364 603 378 603 q 328 604 353 603 q 292 606 304 606 q 213 579 238 606 q 256 551 222 551 q 277 553 263 551 q 299 554 292 554 q 313 553 307 554 l 313 528 l 238 528 q 239 538 239 533 q 213 579 239 546 q 199 578 206 578 q 176 579 192 578 q 154 581 161 581 q 111 553 122 581 l 111 528 q 58 649 58 550 q 61 679 58 665 q 103 681 96 679 q 136 706 126 685 l 111 781 q 142 778 125 778 q 187 781 157 778 q 232 783 217 783 q 313 731 293 783 q 354 757 346 757 q 364 756 358 757 q 364 713 364 715 q 339 679 360 689 q 379 653 371 653 q 389 654 383 653 l 389 604 m 389 150 q 313 124 367 124 q 274 126 300 124 q 235 128 247 128 q 161 49 153 128 l 86 150 l 213 200 q 113 253 178 253 q 86 250 100 253 q 108 299 79 292 q 164 303 136 301 q 188 351 193 310 l 339 351 l 288 301 q 344 269 326 299 q 364 208 351 256 q 389 150 374 167 m 389 74 q 326 46 385 46 q 263 74 267 46 l 389 74 z "},";":{"ha":531,"x_min":144,"x_max":422,"o":"m 422 472 q 297 429 390 429 q 146 453 224 429 q 165 476 165 463 q 155 503 165 483 q 146 532 144 522 l 225 611 q 199 631 218 628 q 165 631 197 631 l 165 690 q 196 693 179 693 q 252 688 215 693 q 304 682 289 682 q 343 690 328 682 q 385 651 385 692 q 383 638 385 647 q 383 622 383 628 q 422 572 383 579 l 304 532 l 422 472 m 422 294 q 388 242 388 274 q 395 202 388 229 q 403 161 403 175 q 383 117 403 136 l 343 117 q 343 150 343 149 q 324 176 340 168 l 304 176 q 324 215 300 188 q 290 228 306 228 q 249 208 276 228 q 200 189 222 189 q 165 196 185 189 q 165 229 165 228 q 146 256 163 247 q 178 258 158 258 q 237 255 194 258 q 300 251 279 251 q 403 314 394 251 l 422 294 m 343 57 q 314 36 329 36 q 283 50 304 36 q 247 64 261 64 q 225 57 236 64 l 165 136 l 206 136 q 225 97 201 125 q 274 132 257 132 q 303 99 285 132 q 343 57 321 65 m 324 -22 l 264 -1 l 324 -1 l 324 -22 m 343 -101 l 264 -81 l 343 -81 l 343 -101 m 225 -121 l 186 -160 l 165 -81 l 225 -121 z "},"?":{"ha":1206,"x_min":181,"x_max":1038,"o":"m 861 582 l 811 532 l 786 582 l 861 582 m 1038 783 l 963 783 q 964 793 964 789 q 938 835 964 801 q 835 814 910 821 q 735 783 767 807 q 803 757 756 757 q 834 758 813 757 q 865 760 856 760 q 886 758 878 760 q 893 724 893 739 q 839 660 893 679 q 739 638 832 657 q 685 603 685 626 q 735 532 685 578 l 685 481 q 710 447 706 471 q 710 406 710 446 q 668 407 675 406 q 635 431 644 411 q 586 410 614 410 q 521 428 561 410 q 458 456 464 454 q 444 500 444 482 q 492 551 444 528 q 539 606 539 575 q 533 632 539 617 q 613 683 557 660 q 685 722 669 707 q 710 808 717 751 q 633 860 694 860 q 616 860 628 860 q 599 860 604 860 q 533 885 553 860 q 503 835 528 879 q 460 801 485 801 q 433 808 449 801 q 419 847 438 833 q 375 861 401 861 q 357 860 365 861 q 322 861 339 861 q 206 783 214 861 q 293 772 236 788 q 392 754 357 754 q 433 758 413 754 q 315 731 399 731 q 181 758 232 731 q 253 894 204 825 q 332 1011 292 953 q 389 985 358 985 q 451 1001 408 985 q 519 1018 494 1018 q 558 1011 540 1018 q 586 964 563 964 q 629 979 596 964 q 682 994 663 994 q 710 986 697 994 q 825 969 744 969 l 858 969 q 961 956 929 969 q 1013 885 1007 938 q 1003 886 1008 886 q 963 860 994 886 q 996 835 972 840 q 1038 835 1003 835 l 1038 783 m 583 178 q 513 208 546 175 q 483 279 479 242 l 583 279 q 586 269 586 274 q 558 229 586 261 q 586 188 586 196 q 583 178 586 183 m 508 103 l 433 128 l 508 128 l 508 103 z "},"@":{"ha":1151,"x_min":92,"x_max":1019,"o":"m 1014 743 q 881 799 950 750 q 763 890 821 844 q 722 939 722 894 q 737 984 722 964 q 774 1004 751 1004 q 804 996 789 1004 q 825 953 800 983 q 843 956 835 956 q 890 907 879 956 q 913 822 901 864 q 993 786 933 778 q 1014 743 1018 756 m 1014 618 l 908 618 q 906 636 906 629 q 924 658 906 650 q 950 681 943 667 q 993 667 956 678 q 1019 642 1019 660 q 1014 618 1019 632 m 678 932 q 615 953 626 932 l 594 932 l 574 1017 q 643 1003 582 1011 q 688 969 688 997 q 678 932 688 954 m 972 535 l 908 556 l 972 556 l 972 535 m 532 974 q 489 953 519 978 q 436 899 489 918 q 343 869 389 883 l 258 869 q 257 893 257 882 q 288 957 257 933 q 357 985 307 969 q 426 1017 407 1001 l 532 1017 l 532 974 m 908 450 q 854 369 908 401 q 783 303 792 333 q 765 301 774 301 q 691 322 738 301 q 622 342 644 342 q 567 321 601 342 q 497 300 533 300 q 383 338 440 300 q 301 429 326 375 l 322 450 q 301 513 301 461 q 364 535 353 513 q 342 571 340 543 q 343 618 342 619 q 385 639 354 614 q 363 697 363 671 q 574 807 363 779 q 594 765 569 794 q 615 807 619 794 q 668 783 622 800 q 704 746 704 771 q 699 722 704 736 q 657 701 688 726 q 719 681 668 681 q 742 718 743 690 q 742 765 742 767 l 825 765 q 771 714 825 749 q 717 654 717 679 q 763 597 717 626 q 783 639 788 626 l 804 639 q 783 597 808 626 q 796 575 796 588 q 778 535 796 564 q 760 490 760 507 q 783 450 760 469 q 736 451 785 450 q 699 429 708 451 l 742 388 l 763 408 l 804 367 q 855 415 803 406 q 908 450 907 425 m 322 828 q 294 793 308 828 q 260 758 281 758 q 238 765 250 758 q 238 800 238 799 q 217 828 235 819 l 154 786 q 208 833 178 833 q 242 828 217 833 q 285 824 267 824 q 322 828 303 824 m 846 199 q 804 157 853 158 q 763 115 756 156 q 735 131 750 131 q 689 112 719 131 q 646 93 658 93 q 615 136 624 93 q 594 94 590 106 l 510 94 l 594 157 q 553 178 564 182 q 618 199 576 199 q 660 196 632 199 q 700 193 688 193 q 783 240 757 193 q 818 228 800 246 q 846 199 832 214 m 238 261 l 133 367 l 196 429 q 92 535 113 451 q 107 611 99 572 q 113 701 115 656 l 238 701 l 238 639 q 196 618 226 643 q 222 595 203 603 q 242 574 242 588 q 238 556 242 567 q 204 486 204 522 q 276 367 204 436 q 349 286 349 299 q 238 261 349 261 m 447 157 q 410 135 439 133 q 364 136 361 135 l 426 199 q 399 219 418 217 q 364 219 397 219 l 385 261 q 450 186 450 240 q 447 157 450 174 m 678 597 q 586 660 640 660 q 494 638 561 660 q 385 618 428 615 l 426 618 q 456 590 442 604 q 468 556 474 572 q 426 535 439 531 q 499 469 463 501 q 594 429 542 432 l 678 597 z "},"A":{"ha":1133,"x_min":47,"x_max":1079,"o":"m 1079 125 l 1031 125 q 1036 151 1036 140 q 1006 193 1036 176 q 957 224 961 218 q 850 174 918 174 q 719 199 810 174 q 588 224 629 224 q 519 174 578 179 q 418 169 468 171 q 365 99 365 158 q 367 76 365 89 l 318 76 q 318 117 318 115 q 293 150 314 140 q 269 157 282 157 q 233 140 256 157 q 201 124 211 124 q 171 150 185 124 q 135 122 154 122 q 85 160 114 122 q 47 199 56 199 q 343 346 276 235 q 310 371 333 367 q 269 371 308 371 l 269 394 l 318 394 q 317 386 317 390 q 343 346 317 378 q 351 344 347 344 q 392 371 360 344 q 360 439 376 404 q 304 476 338 476 q 269 469 289 476 l 219 617 q 261 617 254 617 q 293 640 283 622 q 293 682 293 681 q 269 714 289 704 l 244 714 q 239 743 239 731 q 301 801 239 783 q 363 842 363 819 q 343 886 363 858 q 303 860 311 860 q 295 863 299 860 q 292 871 292 867 q 318 911 292 879 q 328 913 322 913 q 367 886 336 913 q 393 917 393 899 q 368 958 393 933 q 343 985 343 983 q 422 1003 365 1017 q 507 983 503 983 q 539 1058 544 988 q 658 1060 524 1060 q 760 1033 725 1060 l 760 935 q 750 938 756 938 q 711 911 742 938 q 805 874 771 907 q 839 786 839 842 q 833 739 839 764 q 751 740 844 740 q 686 714 707 740 q 778 663 711 663 q 826 665 794 663 q 874 668 858 668 q 907 665 893 668 l 957 444 q 875 446 967 446 q 810 419 829 446 q 836 342 803 369 q 907 297 872 319 l 1031 297 l 957 247 q 1043 210 1040 213 q 1079 125 1079 185 m 1006 76 q 954 35 994 51 q 868 19 914 19 q 760 100 756 19 l 1006 76 m 171 51 l 97 76 l 171 76 l 171 51 m 638 419 q 608 553 608 522 q 613 617 608 574 l 564 665 q 569 632 569 647 q 513 552 569 592 q 456 485 456 513 q 490 419 456 458 q 571 393 524 393 q 638 419 615 393 m 539 224 l 539 247 l 440 247 l 539 224 z "},"B":{"ha":1289,"x_min":168,"x_max":1153,"o":"m 1151 246 q 1112 181 1149 210 q 1075 121 1075 153 q 1078 99 1075 111 q 1018 96 1051 96 q 933 99 990 96 q 849 103 876 103 q 685 50 729 103 q 628 58 657 58 q 559 49 601 58 q 501 40 517 40 q 439 75 463 40 q 415 42 419 65 q 414 1 414 36 q 353 17 383 8 q 289 25 314 25 q 218 1 246 25 l 267 50 q 200 113 200 71 q 216 169 200 132 q 232 221 232 206 q 168 271 232 258 q 292 393 194 368 q 197 471 269 471 q 168 467 183 471 l 168 860 q 179 858 174 858 q 213 878 194 858 q 242 910 238 907 q 210 933 233 931 q 168 933 208 933 l 168 983 q 200 982 185 982 q 357 1022 264 982 q 500 1061 450 1061 q 611 1032 553 1061 q 782 1060 685 1060 q 954 1032 881 1060 q 953 1022 953 1028 q 979 983 953 1014 l 1053 983 q 914 956 1007 956 q 758 983 821 956 q 718 957 726 957 q 708 958 714 957 l 660 1007 q 579 1021 651 1007 q 458 1035 507 1035 q 414 1032 435 1035 l 389 1007 q 432 982 400 982 q 488 983 494 982 l 365 933 q 407 908 375 908 q 464 910 469 908 q 461 900 461 904 q 488 860 461 892 q 668 910 571 910 q 897 865 750 910 q 1126 811 1057 817 l 1053 738 q 1092 711 1083 711 q 1101 713 1097 711 q 1051 629 1101 656 q 954 590 1003 610 q 1039 554 1003 592 q 1092 478 1050 543 q 1151 418 1121 431 q 1138 378 1153 401 q 1122 339 1122 354 q 1126 319 1122 329 q 1085 346 1107 346 q 1031 322 1067 346 q 979 296 996 299 q 1054 246 999 247 q 1151 246 1103 246 m 782 713 q 750 760 763 731 q 733 811 742 785 q 558 781 688 793 q 389 738 444 769 q 421 731 404 731 q 473 745 440 731 q 519 760 506 760 q 561 738 543 760 q 563 728 563 732 q 538 689 563 719 q 563 657 563 675 q 538 616 563 640 q 513 590 513 592 q 549 576 533 576 q 590 609 571 576 q 621 642 608 642 q 660 615 636 642 q 721 664 699 613 q 782 713 743 715 m 856 542 q 815 542 821 542 q 782 565 792 546 l 782 517 q 706 453 763 507 q 614 408 660 408 q 561 418 590 408 l 561 271 q 604 267 582 267 q 706 283 638 267 q 807 296 769 297 l 782 369 q 814 424 799 400 q 825 443 825 439 q 814 461 825 446 q 782 517 799 485 q 815 540 792 538 q 856 542 817 542 m 315 319 l 218 296 l 292 296 l 315 319 z "},"C":{"ha":1200,"x_min":83,"x_max":1115,"o":"m 1115 804 l 993 731 q 1019 690 1019 699 q 1018 681 1019 686 l 968 731 q 947 702 950 726 q 933 678 944 678 q 919 681 928 678 q 885 679 900 679 q 830 696 849 679 q 797 756 811 713 l 821 779 q 721 828 771 803 q 613 854 658 854 q 526 829 567 854 q 500 789 500 797 q 501 779 500 785 q 462 793 486 778 q 422 808 438 808 q 404 804 414 808 q 379 765 379 786 q 393 723 379 751 q 407 676 407 694 q 404 657 407 667 l 331 731 q 304 689 304 711 q 328 635 304 671 q 354 583 353 600 q 401 596 383 596 q 429 550 429 596 q 429 535 429 546 q 429 519 429 525 q 453 460 429 472 l 331 411 q 360 381 335 408 q 393 361 378 361 q 404 363 399 361 q 356 313 408 313 q 345 313 351 313 q 335 313 339 313 q 281 289 293 313 q 328 264 319 292 q 335 211 331 238 q 379 190 340 185 l 404 215 l 379 239 q 406 264 379 261 q 457 268 432 267 q 478 313 482 278 q 543 258 499 307 q 610 214 583 214 q 674 264 640 214 q 717 256 697 256 q 788 300 761 256 q 821 386 799 318 l 821 411 q 882 389 849 389 q 951 403 904 389 q 1025 418 997 418 q 1067 411 1046 418 l 1042 239 q 1033 238 1038 238 q 993 264 1025 238 q 933 213 990 213 q 908 214 925 213 q 883 215 892 215 q 821 190 838 215 q 922 164 856 164 q 1042 165 1057 164 q 994 110 1019 163 q 935 57 969 57 q 894 67 918 57 q 651 93 800 110 q 421 69 436 69 q 232 165 300 74 q 278 203 272 160 q 306 264 285 254 q 265 290 274 290 q 257 289 261 290 q 233 256 238 279 q 232 215 232 250 q 201 210 214 210 q 160 235 174 210 q 133 289 146 261 l 158 313 q 114 333 122 313 q 109 383 110 343 q 85 436 108 424 l 158 485 q 126 508 149 506 q 85 510 124 510 q 83 518 83 514 q 110 558 83 526 q 83 600 83 568 q 85 657 83 664 q 94 656 89 656 q 133 681 103 656 q 124 761 124 728 q 183 903 124 832 q 233 940 208 940 q 272 931 244 940 q 318 921 299 921 q 354 926 336 921 q 439 1017 390 947 q 519 1072 476 1072 q 600 1050 553 1072 q 599 993 599 1057 q 625 951 599 961 l 674 1000 q 650 1033 654 1010 q 649 1074 649 1039 q 726 1100 674 1100 q 821 1099 833 1100 q 822 1089 822 1094 q 797 1050 822 1081 q 1000 972 899 1011 q 1115 804 1115 917 m 722 -7 l 526 -7 q 615 21 543 18 q 722 43 696 24 l 722 -7 z "},"D":{"ha":1311,"x_min":174,"x_max":1213,"o":"m 424 1115 q 372 1090 415 1114 q 303 1065 329 1065 q 251 1090 274 1065 l 228 1065 l 178 1115 l 424 1115 m 1210 674 q 1210 597 1206 656 q 1203 526 1213 546 q 1136 501 1188 496 q 1094 501 1096 501 q 1063 476 1071 497 q 1104 450 1072 450 q 1160 451 1167 450 q 1107 406 1107 431 q 1135 360 1107 392 q 1164 310 1164 328 q 1111 256 1164 282 q 958 222 1058 231 q 792 207 815 211 q 864 150 815 150 q 914 156 878 150 q 972 163 950 163 q 1013 157 993 163 q 667 57 922 57 q 571 60 631 57 q 572 68 572 64 q 546 108 572 76 q 501 81 532 104 q 456 58 469 58 q 424 108 433 58 q 397 68 397 76 q 399 60 397 64 q 349 49 371 49 q 254 103 299 49 q 178 182 194 172 l 178 231 q 219 232 213 231 q 251 256 242 236 q 251 297 251 294 q 228 329 247 319 q 201 289 201 297 q 203 281 201 285 q 174 361 174 296 q 203 451 174 424 l 228 476 q 188 503 196 503 q 178 501 183 503 l 178 550 q 199 547 189 547 q 239 565 219 547 q 276 600 258 582 q 214 668 232 636 q 178 747 211 672 q 188 749 183 749 q 228 722 196 749 q 288 749 254 749 q 350 734 308 749 q 413 719 392 719 q 472 747 446 719 q 361 796 446 796 q 313 794 344 796 q 268 792 282 792 q 176 867 176 792 q 178 894 176 879 q 257 922 194 917 q 325 968 311 926 q 293 992 315 988 q 251 992 292 992 q 365 1017 281 992 q 492 1042 449 1042 q 596 992 561 1042 l 644 992 q 643 983 643 988 q 669 943 643 975 l 743 968 q 742 958 742 963 q 767 918 742 950 q 776 917 772 917 q 817 943 785 917 l 743 1115 q 868 1085 794 1121 q 989 1042 950 1044 l 915 992 q 1022 943 946 950 q 1136 928 1122 935 q 1185 821 1188 906 q 1129 771 1178 771 q 1077 778 1111 771 q 1033 786 1043 786 q 1013 768 1013 786 q 1038 697 1013 747 q 1068 715 1053 715 q 1114 689 1082 715 q 1172 663 1146 663 q 1210 674 1190 663 m 915 600 l 817 674 l 865 722 q 800 781 815 725 q 767 869 778 858 q 710 821 751 815 q 628 844 669 832 q 546 821 576 857 l 571 796 q 582 740 582 764 q 533 668 582 690 q 432 646 506 657 q 350 624 367 638 q 469 625 335 625 q 571 600 536 625 q 572 529 572 608 q 546 476 572 492 q 538 475 542 475 q 497 501 529 475 q 471 469 471 481 q 497 449 471 463 q 524 415 524 435 q 522 403 524 410 q 469 376 507 376 q 399 378 390 376 l 424 354 q 476 381 438 381 q 546 378 556 381 q 572 339 572 347 q 571 329 572 335 q 626 324 601 324 q 733 353 676 324 q 842 403 808 393 l 817 428 q 843 469 811 458 q 890 501 883 483 l 865 501 q 839 540 839 532 q 842 550 839 546 q 922 604 882 576 l 922 604 q 915 600 921 603 m 644 231 q 522 244 575 244 q 399 231 469 244 q 372 271 372 263 q 375 281 372 275 l 325 281 l 325 231 q 435 206 361 231 q 544 182 510 182 q 644 231 604 182 z "},"E":{"ha":1108,"x_min":157,"x_max":1050,"o":"m 1001 1046 l 903 1071 l 1001 1071 l 1001 1046 m 829 850 l 731 874 l 829 874 l 829 850 m 1050 89 l 1026 64 l 976 113 q 939 50 950 63 q 878 15 921 28 l 829 64 q 788 38 819 38 q 731 39 725 38 l 707 64 q 681 24 681 32 q 682 15 681 19 l 633 15 q 632 24 632 19 q 657 64 632 32 q 643 65 650 65 q 553 36 619 65 q 442 7 488 7 q 388 15 414 7 q 336 3 357 3 q 265 88 285 3 q 215 211 242 190 q 225 210 221 210 q 265 236 233 210 l 215 285 q 176 258 185 258 q 167 260 171 258 l 215 310 q 164 406 164 343 q 167 432 164 418 q 231 453 182 444 q 289 482 274 458 q 236 507 275 507 q 167 506 157 507 q 183 551 183 525 q 173 608 183 568 q 163 669 163 647 q 167 703 163 686 q 236 701 157 701 q 289 726 275 701 q 193 778 256 778 q 167 776 181 778 q 167 904 167 840 q 197 1026 171 988 q 314 1071 232 1079 q 608 972 449 969 q 635 1013 635 1004 q 633 1022 635 1017 q 693 994 663 994 q 779 1034 728 994 q 849 1074 831 1074 q 903 997 882 1074 l 953 997 q 950 988 950 992 q 976 947 950 979 l 1026 947 q 1031 918 1031 931 q 1005 876 1031 890 q 953 850 979 863 l 1001 899 l 903 972 q 876 933 876 942 q 878 924 876 928 l 829 924 q 831 933 831 928 q 804 972 831 942 q 696 922 750 947 q 633 825 638 888 q 563 826 642 826 q 510 800 525 826 l 510 703 l 953 653 l 953 604 q 882 606 961 606 q 829 579 844 606 q 889 550 847 557 q 953 531 936 543 q 886 503 949 508 q 824 461 824 499 q 829 432 824 449 q 699 438 794 454 q 560 457 604 422 q 526 399 556 444 q 506 338 506 364 q 510 310 506 324 l 535 285 q 511 253 515 275 q 510 211 510 246 q 550 185 542 185 q 560 186 554 185 q 583 219 579 196 q 583 260 583 221 q 625 260 624 260 q 657 236 649 257 q 693 263 674 263 q 731 248 706 263 q 768 233 756 233 q 804 260 789 233 l 1050 89 z "},"F":{"ha":1097,"x_min":153,"x_max":1004,"o":"m 1004 813 l 931 813 q 929 822 929 817 q 949 856 929 839 q 979 886 976 882 q 947 910 969 907 q 906 910 946 910 l 931 983 q 954 957 951 983 q 960 906 957 931 q 1004 886 968 881 l 1004 813 m 906 592 l 832 615 l 906 615 l 906 592 m 832 886 q 728 861 797 846 q 611 885 669 872 q 513 813 546 885 q 539 771 539 801 q 538 714 539 707 q 535 686 535 701 q 554 597 535 643 q 611 518 575 546 l 685 592 q 658 631 658 622 q 660 640 658 635 q 658 629 658 635 q 671 601 658 614 q 699 589 683 589 q 710 592 704 589 l 783 592 q 757 489 757 507 q 758 468 757 479 q 749 469 754 469 q 710 444 740 469 q 749 418 740 418 q 758 419 754 418 q 721 389 757 399 q 660 369 671 376 l 660 444 q 701 444 694 444 q 733 468 725 449 l 685 542 q 635 493 686 493 q 619 493 631 493 q 604 493 608 493 q 538 444 547 493 q 567 413 542 440 q 601 393 585 393 q 611 394 606 393 q 600 396 606 396 q 555 356 581 396 q 511 317 529 317 q 464 346 490 317 q 471 372 471 361 q 439 414 471 396 q 390 444 394 439 q 328 417 381 424 q 292 369 286 410 q 335 325 297 336 q 401 315 340 324 q 436 294 436 311 q 415 247 436 278 q 447 224 424 228 q 489 222 454 222 q 490 182 489 188 q 513 149 494 158 l 538 149 l 538 100 q 528 101 533 101 q 489 75 519 101 l 513 1 l 268 26 q 317 101 317 56 q 276 190 317 144 q 193 247 239 231 l 169 247 q 208 425 206 415 q 292 567 239 524 q 318 564 306 564 q 415 615 381 564 l 415 640 q 301 667 375 667 q 169 665 153 667 l 169 1057 q 233 1067 201 1067 q 404 1012 297 1067 q 575 957 511 957 q 611 960 593 957 q 651 986 643 986 q 660 983 656 986 l 611 935 q 722 909 642 910 q 832 886 801 908 m 243 100 l 169 125 l 243 125 l 243 100 z "},"G":{"ha":1440,"x_min":132,"x_max":1246,"o":"m 1238 163 q 1118 113 1193 113 q 1000 132 1078 113 q 893 151 922 151 q 796 15 800 151 q 679 44 733 44 q 586 28 644 44 q 493 13 528 13 q 378 40 439 13 q 269 156 368 65 q 183 292 183 235 q 231 383 183 338 q 232 393 232 389 q 206 432 232 401 l 157 432 l 157 556 q 226 554 149 554 q 281 581 265 554 l 206 654 q 181 614 181 622 q 182 604 181 610 q 172 603 176 603 q 132 629 164 603 q 169 763 151 696 q 238 904 197 856 q 378 972 292 971 l 451 899 l 501 972 l 403 1046 q 697 1101 550 1101 q 992 1046 844 1101 q 1036 985 992 1011 q 1090 949 1086 957 l 918 949 q 919 957 919 953 q 893 997 919 965 q 871 965 875 988 q 869 924 869 958 q 908 897 900 897 q 918 899 914 897 q 919 890 919 894 q 893 850 919 882 l 943 801 q 1099 878 979 878 q 1139 875 1119 878 q 1185 806 1181 860 q 1213 728 1190 744 l 869 703 q 842 782 875 754 q 771 825 807 804 q 729 826 736 825 q 697 850 707 831 l 672 825 q 619 851 658 851 q 550 850 542 851 l 525 825 q 550 797 550 814 q 537 764 550 788 q 525 728 524 740 q 497 636 497 710 q 501 560 497 614 q 504 482 504 507 q 501 432 504 453 q 450 397 450 419 q 490 342 450 383 q 529 276 529 301 q 525 261 529 268 q 607 263 515 263 q 672 236 653 263 q 675 226 675 232 q 649 188 675 218 q 690 161 658 161 q 746 163 753 161 l 771 188 q 731 214 739 214 q 722 211 726 214 q 849 313 769 231 q 968 432 908 372 q 932 460 967 433 q 894 476 908 476 q 869 457 879 476 l 869 432 l 819 432 l 819 482 q 861 483 856 482 q 893 507 885 488 q 828 532 874 532 q 746 531 736 532 l 746 604 q 815 610 781 610 q 937 599 860 610 q 1053 588 1014 588 q 1164 604 1111 588 q 1163 594 1163 600 q 1189 556 1163 586 q 1228 582 1219 582 q 1238 581 1233 582 q 1211 543 1211 563 q 1228 504 1211 532 q 1246 460 1246 476 q 1238 432 1246 446 q 1228 435 1233 435 q 1189 408 1219 435 q 1240 299 1240 360 q 1238 256 1240 286 q 1235 207 1235 226 q 1238 163 1235 185 m 1213 40 q 1083 11 1169 11 q 968 64 988 11 q 1081 38 1007 38 q 1213 40 1231 38 m 992 751 m 869 825 l 844 850 q 843 860 843 854 q 869 899 843 868 l 844 875 q 789 874 851 874 q 746 899 757 874 q 808 867 753 883 q 869 825 864 851 m 428 629 l 231 654 q 317 603 247 603 q 428 629 369 603 z "},"H":{"ha":1182,"x_min":82,"x_max":1126,"o":"m 1018 1075 q 961 1026 1000 1026 q 893 1043 942 1026 q 817 1060 844 1060 q 772 1051 793 1060 l 772 1100 l 1018 1075 m 1117 118 q 1094 119 1106 119 q 972 80 1049 119 q 856 40 894 40 q 772 69 814 40 q 825 96 776 93 q 896 118 881 100 q 928 106 907 106 q 1018 143 967 106 l 1043 167 q 950 242 1022 242 q 886 233 928 242 q 832 224 844 224 q 800 256 800 224 q 822 339 800 283 l 650 536 q 591 499 626 539 q 539 460 556 460 q 503 486 521 460 q 467 460 486 460 q 429 474 454 460 q 392 489 404 489 q 356 463 372 489 q 433 349 433 431 q 429 290 433 329 q 425 232 425 251 q 429 192 425 210 q 347 190 439 190 q 282 217 303 190 q 281 225 281 221 q 307 265 281 233 q 210 306 278 272 q 110 339 150 335 q 136 442 136 422 q 135 463 136 451 q 94 488 103 488 q 85 486 90 488 l 135 536 q 94 561 103 561 q 85 560 90 561 l 233 633 q 193 660 201 660 q 183 658 189 660 l 183 683 l 257 633 l 331 732 q 261 776 314 738 q 189 807 217 807 q 135 781 160 807 q 133 790 133 786 q 160 831 133 799 q 126 854 150 850 q 85 854 125 854 q 83 911 83 849 q 110 953 83 943 l 208 928 q 242 999 221 943 q 282 1051 260 1044 q 283 1042 283 1046 q 257 1001 283 1033 q 351 996 281 981 q 454 978 422 1011 q 407 961 438 961 q 383 963 399 961 q 360 964 367 964 q 307 904 313 964 q 365 854 306 854 q 385 856 372 854 q 404 856 397 856 q 458 814 458 856 q 454 781 458 800 q 544 739 494 739 q 618 751 567 739 q 699 764 669 764 q 749 757 724 764 q 775 822 775 776 q 772 904 775 914 l 822 854 q 849 894 849 886 q 847 904 849 899 l 896 831 q 943 863 907 835 q 994 883 971 883 q 1018 879 1006 883 q 1017 869 1017 875 q 1043 831 1017 861 q 1067 863 1064 840 q 1068 904 1068 864 q 1028 931 1036 931 q 1018 928 1024 931 l 1018 953 l 1117 953 q 1122 900 1122 924 q 994 781 1122 796 l 969 757 q 1035 731 990 731 q 1117 732 1126 731 q 1113 674 1113 707 q 1117 587 1113 646 q 1121 499 1121 528 q 1043 339 1121 376 q 1118 250 1118 333 q 1115 202 1118 235 q 1113 154 1113 169 q 1117 118 1113 133 m 404 69 q 379 63 390 63 q 339 103 356 63 q 307 143 322 143 l 404 69 m 257 44 l 85 44 q 92 105 82 86 q 135 143 101 124 q 231 89 172 89 q 257 93 244 89 l 257 44 m 307 438 q 281 476 281 468 q 282 486 281 482 l 257 486 l 257 438 l 307 438 z "},"I":{"ha":611,"x_min":138,"x_max":517,"o":"m 510 1051 q 485 999 504 1014 q 440 977 474 988 q 386 954 406 967 q 389 963 389 958 q 363 1003 389 971 q 339 971 343 993 q 338 929 338 964 q 211 975 267 940 q 142 1076 146 1018 q 188 1085 164 1085 q 267 1067 217 1085 q 343 1050 318 1050 q 411 1076 379 1050 q 453 1064 428 1079 q 492 1049 478 1049 q 510 1051 500 1049 m 485 831 q 435 796 449 833 q 411 733 411 733 q 371 774 371 747 q 382 818 371 786 q 393 871 393 850 q 386 904 393 889 q 413 911 401 911 q 453 871 436 911 q 485 831 469 831 m 338 881 q 264 733 321 835 q 224 746 247 731 q 185 761 200 761 q 165 757 175 761 q 167 799 165 792 q 190 831 171 821 q 157 858 182 849 q 138 883 138 868 q 142 904 138 892 l 338 881 m 510 21 l 460 69 q 343 18 433 18 q 276 21 321 18 q 211 24 232 24 q 165 21 185 24 l 142 46 q 165 78 161 54 q 165 119 165 79 q 185 124 175 124 q 228 110 200 124 q 265 97 256 97 q 289 143 286 97 q 201 172 238 140 q 164 249 164 204 q 190 315 164 283 q 226 311 208 311 q 308 332 261 311 q 386 364 369 360 l 338 414 q 296 392 318 392 q 249 406 282 392 q 196 421 217 421 q 165 414 181 421 l 264 463 q 210 488 226 468 q 190 533 200 500 q 165 585 179 567 q 257 624 197 588 q 349 661 317 661 q 411 635 381 661 q 453 661 421 661 q 510 660 517 661 q 510 618 510 619 q 485 585 506 594 q 515 529 515 550 q 447 488 515 504 q 363 438 374 469 q 428 392 382 399 q 510 389 468 390 q 415 343 486 363 q 303 304 328 318 q 239 217 247 274 q 314 143 257 143 q 413 169 342 143 q 510 193 479 194 l 411 119 q 474 82 463 92 q 510 21 496 63 z "},"J":{"ha":1017,"x_min":78,"x_max":913,"o":"m 913 410 l 765 361 l 889 311 q 894 275 894 293 q 815 139 894 208 l 765 189 q 705 114 744 169 q 639 36 665 58 q 546 3 597 3 q 471 17 511 3 l 447 42 q 415 14 426 14 q 394 41 408 14 q 360 68 381 68 q 349 65 354 68 q 210 67 279 67 q 103 139 131 72 q 96 168 96 156 q 139 208 96 196 q 201 238 192 225 q 263 311 204 281 q 324 385 321 342 q 189 461 299 461 q 151 458 171 461 l 151 483 l 299 458 q 297 450 297 454 q 324 410 297 442 l 374 410 q 348 383 372 408 q 324 342 324 358 q 349 311 324 325 l 374 336 l 496 213 q 522 256 522 224 q 521 311 522 318 q 561 313 556 311 q 594 336 585 317 q 560 403 576 369 q 542 476 542 442 q 544 508 542 492 l 643 557 l 544 631 l 618 679 q 567 715 590 686 q 544 775 544 743 q 569 826 544 806 l 544 1024 l 618 876 q 701 956 664 879 q 771 1033 739 1033 q 839 999 799 1033 q 879 1025 871 1025 q 889 1024 883 1025 l 889 925 q 853 937 876 924 q 819 950 829 950 q 790 925 801 950 l 790 901 q 733 899 797 899 q 692 925 703 899 q 667 886 667 894 q 668 876 667 881 q 769 850 703 850 q 889 851 904 850 l 889 778 q 847 778 849 778 q 815 753 825 774 q 878 706 857 750 q 913 631 896 668 l 864 582 l 913 532 q 860 508 901 508 q 849 508 856 508 q 839 508 842 508 q 790 458 786 508 l 913 410 m 176 311 l 78 311 l 128 385 q 176 311 164 388 z "},"K":{"ha":1444,"x_min":204,"x_max":1322,"o":"m 1253 1039 l 1179 1064 l 1253 1064 l 1253 1039 m 1300 25 q 1133 24 1322 24 q 986 50 1039 24 q 946 24 976 24 q 890 25 883 24 q 769 292 760 181 q 738 315 760 311 q 697 315 736 315 q 671 368 699 342 q 625 413 647 390 q 556 317 567 382 q 553 194 556 317 q 479 218 524 218 q 407 194 436 218 l 383 171 q 460 144 407 144 q 553 146 564 144 l 553 74 l 383 74 q 335 124 385 124 q 314 124 328 124 q 292 122 299 122 q 239 146 251 122 l 214 436 q 294 435 204 435 q 360 460 339 435 q 294 486 339 486 q 214 485 204 486 l 214 653 q 269 651 208 651 q 311 678 301 651 l 214 750 q 278 769 231 763 q 335 799 319 775 q 303 849 322 810 q 263 894 285 881 l 214 894 q 213 950 213 888 q 239 992 213 981 l 214 1015 q 292 1040 247 1040 q 389 1024 321 1040 q 496 1007 457 1007 q 553 1015 525 1007 q 499 988 550 999 q 449 947 449 976 q 456 918 449 935 l 504 871 l 528 894 l 576 774 q 718 846 678 767 q 771 993 744 919 q 914 1064 811 1071 l 1179 992 q 1093 878 1167 936 q 968 779 1031 829 q 903 660 903 721 q 914 606 903 633 q 857 550 907 588 q 814 490 814 518 q 842 436 814 467 q 865 468 863 446 q 865 508 865 469 q 932 476 879 504 q 1003 456 972 456 q 1035 460 1018 456 l 1132 267 q 1056 293 1107 293 q 963 292 951 293 q 953 254 953 269 q 1024 215 953 215 q 1068 217 1036 215 q 1115 219 1100 219 q 1204 194 1181 219 l 1156 122 l 1300 25 m 1058 918 l 1058 992 l 986 918 l 1058 918 m 939 219 l 818 219 q 897 194 890 194 q 939 219 924 194 z "},"L":{"ha":978,"x_min":60,"x_max":911,"o":"m 908 282 q 911 247 911 261 q 836 161 911 183 q 801 156 818 156 q 751 164 782 156 q 707 172 719 172 q 643 138 672 172 q 718 111 667 111 q 811 113 824 111 l 811 40 l 88 40 q 60 135 60 99 q 124 200 60 189 q 244 210 185 206 q 310 254 310 215 q 304 282 310 267 l 232 257 q 233 313 233 251 q 208 354 233 344 q 168 354 169 354 q 136 331 144 350 l 136 306 q 90 374 99 318 q 88 475 88 390 q 121 472 104 472 q 232 547 225 472 q 174 608 225 588 q 88 643 131 626 q 143 769 83 729 q 281 813 182 793 q 217 875 249 844 q 129 918 172 918 q 88 910 108 918 q 157 972 94 940 q 208 1054 213 1001 q 326 1056 193 1056 q 425 1029 392 1056 q 339 978 417 982 q 232 933 253 974 q 307 908 254 908 q 329 910 314 908 q 351 910 344 910 q 425 885 403 910 l 425 789 q 339 813 378 813 q 231 772 296 813 q 111 717 157 726 q 236 665 150 665 q 297 668 256 665 q 358 671 339 671 q 401 668 382 671 l 353 619 q 431 519 431 607 q 426 458 431 500 q 421 394 421 415 q 425 354 421 371 q 385 354 386 354 q 353 331 363 350 q 349 306 349 318 q 369 256 349 283 q 401 210 397 219 q 817 285 567 285 q 908 282 863 285 z "},"M":{"ha":1444,"x_min":126,"x_max":1347,"o":"m 1342 814 l 1293 814 q 1342 886 1306 890 l 1342 814 m 328 1079 q 256 1053 318 1053 q 183 1079 192 1053 l 328 1079 m 1342 114 q 1301 114 1303 114 q 1269 90 1278 111 q 1308 64 1300 64 q 1317 67 1313 64 l 1317 42 l 1269 90 q 1179 38 1247 38 q 1076 67 1124 38 q 1026 243 1026 115 q 1026 297 1026 261 q 1028 351 1028 333 q 1004 500 1028 449 q 924 304 949 407 q 883 90 904 197 q 851 99 868 99 q 785 69 826 99 q 729 40 743 40 q 690 90 704 40 q 642 81 663 81 q 583 125 600 81 q 568 221 576 146 q 544 307 561 283 l 472 500 l 449 163 q 368 164 458 164 q 304 139 324 164 q 376 114 315 114 q 296 83 351 107 q 229 67 258 67 q 135 90 192 67 l 207 139 q 175 163 197 158 q 135 163 174 163 l 135 283 q 144 282 139 282 q 183 307 153 282 q 144 333 153 333 q 135 332 139 333 q 133 340 133 336 q 158 381 133 349 q 133 421 133 390 q 135 476 133 483 q 190 475 128 475 q 232 500 221 475 q 132 626 132 496 q 135 669 132 647 q 204 668 126 668 q 256 693 242 668 q 204 719 242 719 q 135 718 126 719 l 135 767 q 175 765 174 767 q 207 742 197 763 q 232 785 232 758 q 222 825 232 800 q 207 863 215 844 l 279 886 q 278 878 278 882 q 304 839 278 869 q 336 889 317 850 q 376 935 353 922 q 338 961 346 961 q 328 960 332 961 l 328 983 q 338 985 332 985 q 376 960 346 985 q 441 970 399 957 q 504 983 483 983 q 569 960 539 983 l 618 911 l 521 863 q 714 525 690 817 l 738 500 q 774 568 756 535 q 786 646 792 608 q 847 807 825 685 q 907 983 869 936 q 1067 1015 910 983 q 1247 1036 1172 1036 q 1317 1032 1283 1036 l 1317 960 q 1281 965 1297 965 q 1208 925 1247 965 q 1124 886 1168 885 q 1228 769 1151 819 q 1342 669 1314 713 q 1317 574 1304 638 q 1342 461 1329 518 q 1293 356 1347 394 q 1344 263 1344 339 q 1341 207 1344 244 q 1338 151 1338 169 q 1342 114 1338 131 m 1149 332 m 376 693 q 342 743 379 729 q 279 767 281 765 l 328 718 l 304 693 l 376 693 m 376 500 l 328 549 l 232 574 l 376 500 m 400 260 l 400 307 q 361 289 382 289 q 296 318 336 289 q 232 356 249 350 q 307 290 257 304 q 400 260 388 267 z "},"N":{"ha":1251,"x_min":125,"x_max":1176,"o":"m 1099 999 q 1018 1022 1076 1022 q 1003 1022 1013 1022 q 989 1022 994 1022 q 906 1071 915 1022 q 1011 1072 892 1072 q 1099 1047 1071 1072 l 1099 999 m 1171 82 q 1029 29 1132 29 q 833 57 964 29 l 592 371 q 614 411 614 394 q 576 453 614 425 q 543 517 539 482 q 535 515 539 515 q 496 540 526 515 q 469 499 469 531 q 471 444 469 438 q 415 446 478 446 q 375 419 385 446 q 438 374 383 407 q 481 315 481 349 q 471 275 481 297 q 431 275 432 275 q 399 251 408 271 q 397 242 397 246 q 424 203 397 233 l 447 226 q 472 171 472 219 q 471 82 472 72 q 463 81 467 81 q 424 106 454 81 q 397 67 397 75 q 399 57 397 63 l 303 131 q 282 103 285 126 q 268 79 279 79 q 254 82 263 79 q 219 79 235 79 q 133 154 158 79 l 133 226 q 206 251 193 226 q 207 260 207 256 q 182 299 207 268 l 133 299 l 133 371 q 203 369 125 369 q 254 396 240 369 q 160 446 221 446 q 133 444 147 446 l 133 517 q 203 515 125 515 q 254 540 240 515 q 256 550 256 544 q 231 589 256 558 q 188 578 204 578 q 150 629 156 578 q 133 710 142 697 l 182 757 q 131 828 131 764 q 133 874 131 842 q 136 919 136 906 q 133 950 136 938 q 400 1075 200 1075 q 471 1071 435 1075 q 626 832 518 978 q 810 589 718 711 q 815 635 815 606 q 809 718 815 658 q 803 808 803 778 q 906 950 803 940 q 874 975 896 971 q 833 975 872 975 l 833 999 q 969 981 856 988 q 1075 926 1056 975 q 1106 950 1083 947 q 1147 950 1108 950 q 1161 900 1161 926 q 1157 865 1161 888 q 1153 831 1153 842 q 1171 782 1153 804 q 1121 703 1121 760 q 1147 638 1121 663 l 1171 613 q 1099 533 1099 597 q 1101 497 1099 521 q 1104 461 1104 472 q 1026 396 1104 400 l 1003 371 l 954 419 l 906 347 q 1014 319 949 319 q 1122 347 1079 319 l 1122 371 q 1132 374 1128 374 q 1171 347 1140 374 q 1131 347 1132 347 q 1099 324 1108 343 q 1144 292 1106 306 q 1171 251 1176 282 l 1122 203 l 1147 178 l 882 131 q 994 106 919 106 q 1026 106 1004 106 q 1058 107 1049 107 q 1171 82 1133 107 z "},"O":{"ha":1350,"x_min":146,"x_max":1247,"o":"m 1233 433 q 1114 192 1211 297 q 996 193 1129 193 q 896 168 931 193 q 968 143 908 143 q 967 135 967 139 q 993 96 967 126 l 1040 96 l 1040 71 q 968 96 981 71 q 928 51 961 61 q 872 22 886 40 q 767 53 819 38 q 657 71 701 71 q 558 47 601 71 q 457 -4 514 -4 q 438 -1 447 -4 l 365 96 q 421 93 358 93 q 464 129 464 93 q 438 168 464 136 q 364 217 410 168 q 297 267 318 267 q 244 215 269 267 l 147 336 l 172 361 q 146 413 146 385 q 157 458 146 428 q 168 504 168 489 q 147 554 168 531 l 221 601 q 189 626 211 622 q 147 626 186 626 l 147 699 q 221 722 208 699 q 196 776 196 746 q 214 836 196 801 q 244 892 229 864 q 607 1061 432 1058 q 606 1051 606 1056 q 631 1013 606 1043 l 679 1085 q 678 1075 678 1081 q 703 1036 678 1067 l 728 1061 q 771 994 724 1010 q 861 976 815 985 q 921 915 914 961 l 1017 989 q 1018 979 1018 983 q 993 940 1018 971 q 1044 914 1007 914 q 1114 915 1122 914 q 1076 886 1113 894 q 1017 868 1026 874 q 967 915 999 915 q 906 892 947 915 q 847 868 865 868 q 839 869 843 869 q 800 843 831 869 q 981 818 863 818 q 1161 819 1181 818 l 1210 699 q 1192 694 1201 694 q 1149 708 1176 694 q 1113 721 1121 721 q 1089 675 1092 721 q 1149 650 1108 656 q 1208 639 1196 644 q 1233 578 1233 625 l 1233 529 q 1128 531 1247 531 q 1040 506 1069 531 q 1093 481 1056 481 q 1161 482 1171 481 q 1160 472 1160 476 q 1186 433 1160 464 l 1233 433 m 896 771 l 824 771 q 799 810 799 801 q 800 819 799 814 q 688 796 761 793 q 569 808 628 801 q 510 794 514 814 q 536 768 536 786 q 501 717 536 746 l 501 717 q 510 722 503 717 q 511 579 511 736 q 486 433 511 482 q 431 432 493 432 q 389 457 399 432 q 390 449 390 453 q 365 408 390 440 q 293 433 304 408 q 254 407 263 407 q 244 408 249 407 q 358 385 283 385 q 388 385 368 385 q 417 386 407 386 q 558 336 517 386 q 558 296 558 297 q 535 264 554 274 q 569 238 550 238 q 606 252 582 238 q 643 267 631 267 q 679 240 663 267 l 703 264 q 743 264 742 264 q 775 240 767 260 q 804 271 779 243 q 838 290 822 290 q 847 289 843 290 q 817 325 817 311 q 848 349 817 336 q 879 372 879 361 q 847 408 879 386 q 872 504 872 453 q 850 625 872 547 q 824 747 826 708 q 856 771 833 767 q 896 771 857 771 z "},"P":{"ha":1158,"x_min":97,"x_max":1071,"o":"m 1065 622 q 1010 624 1071 624 q 968 597 978 624 l 968 550 q 918 575 946 575 q 879 566 904 575 q 843 557 854 557 q 799 597 817 557 l 726 525 l 775 476 q 826 503 789 503 q 896 501 904 503 l 919 476 q 961 503 929 503 q 1017 501 1024 503 q 872 411 968 439 q 682 381 808 392 q 486 357 538 367 q 460 292 460 336 q 461 211 460 201 q 346 261 440 261 q 317 260 331 261 q 293 188 293 247 q 322 157 297 185 q 356 138 339 138 q 365 139 360 138 q 371 115 371 126 q 339 64 371 90 q 293 18 299 29 q 179 17 236 18 q 124 90 117 21 q 125 100 125 96 q 99 139 125 108 q 125 181 125 149 q 124 236 125 242 q 196 260 183 236 q 143 285 160 265 q 123 329 133 296 q 99 381 113 363 q 108 379 104 379 q 147 404 117 379 q 128 485 146 428 q 111 564 111 538 q 196 646 111 626 q 197 656 197 650 q 172 694 197 664 l 124 694 q 122 703 122 699 q 147 743 122 711 q 117 772 144 747 q 97 806 97 789 q 99 815 97 810 q 131 839 108 835 q 172 839 133 839 q 292 838 161 838 q 413 863 375 838 q 374 889 382 889 q 365 888 369 889 l 413 936 q 367 967 403 940 q 317 988 339 988 q 293 983 304 988 q 294 993 294 989 q 268 1032 294 1001 q 222 1000 257 1028 q 171 979 194 979 q 147 983 160 979 l 124 1056 l 799 1056 q 788 1021 801 1044 q 775 988 775 997 q 799 960 775 971 q 881 992 847 992 q 936 968 908 992 q 992 911 964 939 l 1040 839 q 985 840 1047 840 q 944 815 954 840 q 1026 765 1000 815 q 1065 669 1046 718 l 1065 622 m 896 669 q 844 661 869 661 q 701 735 786 661 q 557 808 615 808 q 486 790 524 808 l 486 622 l 558 622 q 583 583 583 590 q 582 574 583 578 l 679 574 l 654 597 q 754 665 676 653 q 896 669 760 667 m 244 67 l 244 90 l 172 90 l 244 67 z "},"Q":{"ha":1258,"x_min":65,"x_max":1181,"o":"m 1179 617 q 1181 561 1181 624 q 1156 521 1181 531 q 1157 488 1157 506 q 1107 279 1157 364 q 1067 279 1068 279 q 1035 256 1044 275 q 1083 183 1038 226 q 1131 110 1128 139 q 1010 138 1082 138 q 890 110 939 138 q 847 47 882 47 q 811 56 838 47 q 771 64 785 64 q 721 38 740 64 q 540 36 739 36 q 358 63 421 36 l 311 182 l 238 135 q 154 224 175 194 q 115 331 115 275 q 117 351 115 340 l 142 375 l 69 424 l 214 472 l 69 544 q 142 569 129 544 q 110 593 132 589 q 69 593 108 593 q 65 644 65 619 q 150 881 65 774 q 335 1051 200 943 q 504 1078 413 1078 q 756 1043 597 1078 q 986 1003 925 1007 q 988 994 988 999 q 963 956 988 986 q 1036 928 975 936 q 1088 888 1088 919 q 1083 858 1088 875 q 1057 860 1069 860 q 963 810 996 860 q 985 736 982 799 q 1035 689 986 686 l 1083 738 q 1057 776 1057 768 q 1058 786 1057 781 q 1101 797 1083 797 q 1140 746 1133 797 q 1156 665 1149 675 l 1131 642 q 1169 615 1163 615 q 1179 617 1175 615 m 793 496 q 807 597 807 553 q 769 738 807 669 q 613 835 692 835 q 528 810 572 835 q 478 728 503 769 q 450 644 450 678 q 456 617 450 629 q 456 576 456 578 q 431 544 451 554 q 471 442 450 515 q 513 342 492 369 q 603 299 543 299 q 649 303 624 299 l 551 400 q 594 425 551 425 q 600 424 589 425 l 576 449 q 601 501 575 475 q 649 544 625 524 q 692 572 672 572 q 740 535 710 572 q 793 496 769 499 m 793 182 l 793 231 q 765 235 779 235 q 699 222 742 235 q 636 208 656 208 q 576 231 603 208 l 793 182 z "},"R":{"ha":1167,"x_min":121,"x_max":1093,"o":"m 1089 168 q 1043 74 1093 106 q 929 47 1001 47 q 799 72 856 47 q 749 226 749 133 q 750 265 749 244 l 775 289 q 750 361 750 301 l 775 386 q 676 422 742 422 q 578 408 638 422 q 485 386 532 397 l 485 240 q 429 242 492 242 q 389 217 399 242 q 429 192 399 192 q 485 193 492 192 q 392 142 468 142 q 336 144 374 142 q 281 147 299 147 q 243 144 260 147 q 246 153 246 149 q 219 193 246 161 q 193 153 193 161 q 196 144 193 149 q 169 138 181 138 q 121 217 121 138 q 122 240 121 229 l 122 338 q 150 331 138 331 q 190 363 174 331 q 219 410 214 406 q 225 436 225 425 q 185 479 225 465 q 122 507 131 499 l 122 603 q 132 604 128 604 q 171 579 140 604 q 197 631 197 593 q 196 700 197 708 q 167 731 192 703 q 133 749 149 749 q 122 747 128 749 l 122 819 q 161 801 142 801 q 201 818 176 801 q 243 844 232 840 l 243 917 q 326 919 285 918 q 389 965 369 926 q 316 990 371 989 q 243 1013 261 990 q 290 1039 254 1039 q 374 1025 311 1039 q 471 1011 436 1011 q 557 1038 524 1011 q 621 1081 590 1081 q 706 1024 646 1081 q 818 967 767 967 q 896 989 854 967 q 925 958 900 986 q 958 939 942 939 q 968 940 963 939 q 969 932 969 936 q 943 893 969 924 q 986 868 960 868 q 1026 878 1003 868 q 1064 893 1046 885 l 1015 844 q 1076 713 1076 763 q 1064 626 1076 685 q 1044 624 1054 624 q 972 662 1018 624 q 899 700 925 700 q 847 675 874 700 q 893 644 864 656 q 943 626 918 635 l 943 531 q 875 532 953 532 q 822 507 838 532 q 871 457 819 457 q 881 457 874 457 q 890 457 888 457 q 943 433 932 457 q 1044 460 1026 460 q 1064 458 1054 460 q 1038 406 1065 432 q 992 361 1015 383 q 1054 325 1042 335 q 1089 265 1075 306 l 968 193 l 1040 119 q 1065 160 1065 151 q 1064 168 1065 164 l 1089 168 m 678 940 l 654 965 q 582 915 649 915 q 557 917 574 915 q 533 917 540 917 q 461 868 467 917 l 678 940 m 750 724 q 568 822 743 822 q 510 819 544 822 q 454 769 518 769 q 436 772 444 769 q 501 710 489 771 q 557 626 515 640 q 660 660 608 643 q 750 724 718 683 z "},"S":{"ha":1211,"x_min":193,"x_max":1125,"o":"m 1117 279 q 1043 256 1089 243 q 972 279 1007 267 q 924 231 935 283 q 988 206 943 206 q 1068 207 1078 206 q 972 107 1072 107 q 929 108 958 107 q 885 110 900 110 q 778 63 806 110 q 818 36 810 36 q 826 38 822 36 q 756 13 808 13 q 633 38 697 13 q 632 47 632 43 q 658 86 632 56 q 626 110 649 107 q 585 110 624 110 q 560 71 560 79 q 561 63 560 67 q 492 61 569 61 q 440 86 454 61 q 401 60 410 60 q 392 63 397 60 l 392 110 q 447 108 386 108 q 489 135 479 108 q 413 158 464 154 q 333 169 349 164 q 271 231 290 185 q 235 296 257 247 q 199 375 199 375 q 197 367 197 371 q 224 328 197 358 q 353 381 254 381 q 513 351 432 381 q 511 333 511 342 q 544 275 511 293 q 613 255 561 265 q 682 231 664 244 q 744 285 693 258 q 789 336 789 307 q 778 375 789 353 q 624 426 717 426 q 585 424 606 426 q 588 433 588 429 q 561 472 588 442 q 533 449 550 449 q 500 461 524 449 q 464 472 476 474 q 399 521 458 521 q 376 521 392 521 q 353 519 361 519 q 271 569 288 519 l 392 642 q 361 665 383 661 q 319 665 358 665 l 319 714 q 329 713 325 713 q 368 738 338 713 q 336 761 358 758 q 296 763 335 763 q 271 689 271 750 q 222 736 267 697 q 193 796 193 763 q 199 835 193 813 l 296 882 l 224 956 q 367 1006 265 1006 q 407 1004 379 1006 q 449 1003 435 1003 q 561 1028 522 1003 q 560 1018 560 1022 q 585 979 560 1010 q 611 1021 611 989 q 610 1075 611 1082 l 561 1124 q 771 1107 706 1121 q 947 1003 893 1081 q 988 1003 986 1003 q 1019 979 1010 999 l 1019 907 q 964 908 1026 908 q 921 874 921 908 q 947 835 921 865 l 1068 858 l 1068 786 q 1058 785 1063 785 q 1019 810 1050 785 q 939 786 990 774 q 858 810 899 799 q 803 763 818 815 l 731 810 l 875 858 q 775 906 835 906 q 667 883 740 906 q 561 858 594 860 q 536 808 536 835 q 563 741 536 788 q 585 665 589 694 q 624 668 606 668 q 777 613 689 668 q 925 558 865 558 q 996 569 958 558 q 994 560 994 564 q 1019 521 994 551 l 1068 521 l 1068 449 q 1028 447 1029 449 q 996 424 1004 444 q 1047 399 1010 399 q 1117 400 1125 399 q 1118 390 1118 394 q 1092 351 1118 382 q 1115 319 1113 342 q 1117 279 1117 318 z "},"T":{"ha":1356,"x_min":190,"x_max":1192,"o":"m 1192 1026 q 1174 1025 1185 1025 q 1147 1026 1165 1025 q 1121 1028 1129 1028 q 1067 1001 1082 1028 l 1167 876 q 1038 851 1131 860 q 910 826 946 843 q 842 726 850 799 q 765 697 790 732 q 717 626 739 663 q 711 593 711 607 q 764 550 711 550 q 792 551 774 550 q 818 553 810 553 q 871 508 871 553 q 867 476 871 494 q 843 475 856 475 q 806 476 831 475 q 771 478 782 478 q 692 451 717 478 q 693 408 692 415 q 717 375 697 385 l 742 375 l 667 300 l 692 275 q 628 234 663 278 q 560 190 593 190 q 517 200 540 190 l 517 300 q 574 299 508 299 q 618 336 618 299 q 592 375 618 343 l 517 375 q 518 397 518 385 q 516 428 518 407 q 514 458 514 449 q 542 526 514 506 q 517 558 522 536 q 517 601 517 565 q 558 603 551 601 q 592 626 582 607 q 558 651 582 647 q 517 651 557 651 q 521 708 515 671 q 526 761 526 746 q 440 826 526 829 q 315 799 390 799 q 190 826 242 799 l 190 1076 q 263 1081 224 1081 q 401 1074 310 1081 q 533 1067 492 1067 q 642 1076 596 1067 l 692 1026 q 842 1052 735 1051 q 992 1076 949 1053 q 993 1035 992 1042 q 1017 1001 997 1011 q 1042 1035 1038 1011 q 1042 1076 1042 1036 l 1192 1076 l 1192 1026 m 892 150 q 831 99 889 99 q 806 99 822 99 q 779 100 789 100 q 717 75 733 100 q 792 49 735 50 q 867 25 849 49 l 867 0 q 692 26 807 26 q 620 25 667 26 q 554 24 574 24 q 517 25 532 24 q 540 101 536 39 q 592 150 544 150 q 633 137 608 153 q 672 121 658 121 q 692 125 682 121 q 714 144 714 135 q 701 165 714 150 q 688 189 688 179 q 692 200 688 194 q 722 197 704 197 q 766 201 736 197 q 811 204 796 204 q 892 150 872 204 z "},"U":{"ha":1185,"x_min":64,"x_max":1124,"o":"m 393 1097 q 318 1069 383 1069 q 243 1097 253 1069 l 393 1097 m 1119 596 q 1110 599 1114 599 q 1069 571 1101 599 q 1074 550 1074 560 q 1032 503 1074 521 q 969 471 976 478 l 1019 421 l 919 371 q 1004 339 953 350 q 1094 321 1049 329 q 1014 285 1088 313 q 944 221 951 261 q 989 196 960 196 q 1031 206 1006 196 q 1069 221 1050 213 q 743 -4 1031 46 q 697 0 726 0 q 618 -5 675 0 q 531 -10 561 -10 q 368 71 401 -10 q 431 99 378 92 q 468 146 474 104 l 393 221 q 328 140 372 204 q 243 96 301 103 q 231 131 231 114 q 262 185 231 153 q 293 233 293 217 q 268 271 293 251 q 207 228 233 228 q 153 261 188 228 q 93 296 118 294 l 93 346 q 122 342 107 342 q 218 421 194 342 q 147 458 182 440 q 68 471 106 476 q 143 521 64 508 q 168 501 153 501 q 207 519 183 501 q 243 546 243 546 q 175 582 208 564 q 100 600 135 600 q 68 596 85 600 l 68 897 q 76 896 72 896 q 118 922 86 896 q 94 954 99 932 q 93 997 93 961 q 176 975 125 975 q 281 988 213 975 q 376 1001 350 1001 q 453 919 453 1001 q 443 847 453 889 l 443 496 q 401 496 403 496 q 368 471 378 492 q 464 331 415 400 q 607 242 528 242 q 643 246 625 242 q 717 317 681 282 q 768 396 760 360 l 743 421 l 793 471 l 768 496 q 783 494 776 494 q 870 560 818 494 q 969 621 922 625 q 914 668 942 644 q 847 697 876 697 q 793 672 819 697 l 768 672 q 764 690 764 681 q 778 735 764 707 q 792 772 792 764 q 743 797 792 794 q 771 850 757 824 q 813 876 785 876 q 844 872 826 876 q 876 860 856 860 q 969 897 917 860 q 879 924 939 924 q 838 922 865 924 q 797 921 810 921 q 768 922 781 921 q 767 932 767 926 q 793 972 767 940 q 769 1001 769 983 q 783 1035 769 1011 q 793 1072 796 1060 q 832 1071 811 1071 q 888 1072 850 1071 q 943 1074 925 1074 q 1069 1047 1025 1074 q 1090 1075 1088 1050 q 1106 1100 1093 1100 q 1119 1097 1111 1100 q 1108 1029 1108 1063 q 1116 964 1108 1007 q 1124 893 1124 921 q 1119 847 1124 871 q 1076 847 1079 847 q 1044 822 1054 843 q 1069 789 1065 813 q 1069 747 1069 788 l 1044 722 q 1075 690 1049 718 q 1108 669 1093 669 q 1119 672 1114 669 l 1119 596 m 318 822 q 300 826 308 826 q 260 810 285 826 q 218 797 235 794 q 232 799 224 799 q 253 797 239 799 q 275 796 268 796 q 318 822 307 796 m 768 121 q 747 122 760 122 q 717 121 738 122 q 685 119 696 119 q 618 146 639 119 q 707 117 629 117 q 768 121 735 117 z "},"V":{"ha":1196,"x_min":97,"x_max":1099,"o":"m 1099 1079 q 1074 967 1085 1046 q 1049 856 1063 889 q 974 779 1025 800 l 999 754 l 924 654 q 935 593 935 625 q 891 440 935 543 q 849 278 847 336 q 786 179 803 260 q 747 53 767 78 q 628 29 715 56 q 492 3 535 3 q 372 78 407 3 q 336 116 354 96 q 318 157 318 136 q 322 178 318 167 l 347 203 q 307 229 315 229 q 297 228 301 229 l 372 303 q 274 356 338 356 q 247 353 261 356 l 297 403 q 233 442 246 431 q 197 504 211 461 q 248 527 225 497 q 271 593 271 557 q 222 654 271 647 q 307 656 265 656 q 372 704 353 664 q 335 731 356 731 q 297 716 322 731 q 258 701 272 701 q 222 729 239 701 q 193 704 210 704 q 159 717 183 704 q 122 729 135 731 l 97 804 q 160 831 99 822 q 222 861 222 839 q 197 904 222 876 l 147 904 q 143 933 143 919 q 222 1029 143 1007 l 322 929 q 349 969 349 961 q 347 979 349 975 l 422 929 q 471 699 425 829 q 547 478 510 589 l 672 554 q 632 581 640 581 q 622 579 628 581 q 660 772 642 675 q 772 888 692 888 q 824 879 796 888 q 850 919 850 911 q 849 929 850 924 q 785 954 800 926 q 772 1017 778 965 q 747 1079 768 1060 l 849 1079 q 846 1069 846 1075 q 874 1029 846 1061 q 900 1069 900 1061 q 899 1079 900 1075 q 908 1081 903 1081 q 949 1054 917 1081 q 985 1082 965 1082 q 1023 1067 997 1082 q 1061 1053 1049 1053 q 1099 1079 1082 1053 m 799 403 l 672 428 q 710 417 686 431 q 744 404 733 404 q 772 428 761 404 l 799 403 z "},"W":{"ha":1575,"x_min":81,"x_max":1486,"o":"m 1486 801 l 1411 751 q 1451 725 1443 725 q 1461 726 1457 725 q 1436 606 1447 690 q 1411 486 1425 521 q 1336 400 1389 425 q 1332 381 1332 390 q 1347 333 1332 363 q 1363 290 1363 303 q 1336 250 1363 268 q 1326 249 1332 249 q 1286 275 1318 249 q 1243 231 1278 239 q 1186 200 1200 219 q 1311 75 1286 175 q 1267 48 1297 72 q 1221 24 1238 24 q 1186 50 1203 24 q 1101 0 1153 0 q 1006 25 1071 0 q 911 50 942 50 q 999 89 926 68 q 1061 150 1057 106 q 1013 144 1033 144 q 919 190 950 144 q 882 294 904 215 q 836 400 863 368 l 836 451 q 844 449 840 449 q 886 476 854 449 l 811 526 q 710 50 717 286 q 618 8 681 8 q 590 10 608 8 q 561 11 571 11 q 510 0 529 11 q 482 -8 496 -8 q 438 9 465 -8 q 397 26 410 26 q 360 0 378 26 q 285 200 279 39 q 294 199 289 199 q 335 225 303 199 q 336 235 336 231 q 310 275 336 243 l 260 275 q 256 304 256 290 q 276 367 256 332 q 310 426 306 413 q 267 453 299 453 q 245 451 260 453 q 224 450 231 450 q 210 451 215 450 q 218 482 218 467 q 201 535 218 503 q 183 583 183 568 q 210 626 183 606 q 146 738 167 653 q 110 876 128 807 l 160 926 q 81 1044 81 942 q 85 1076 81 1061 q 144 1081 114 1081 q 292 1060 204 1081 q 435 1026 406 1031 l 360 976 q 393 953 369 957 q 435 951 400 951 q 421 896 421 925 q 456 781 421 857 q 492 664 492 706 q 460 576 492 618 l 535 501 q 568 592 539 519 q 589 686 589 646 q 585 726 589 706 q 594 725 590 725 q 635 751 603 725 q 608 788 608 768 q 623 826 608 801 q 638 864 638 851 q 610 901 638 885 q 665 926 622 926 q 676 926 669 926 q 686 926 682 926 q 735 976 739 926 q 744 978 740 978 q 786 951 753 978 q 813 994 813 963 q 811 1016 813 1001 q 810 1038 810 1031 q 811 1051 810 1046 q 904 1078 867 1078 q 975 1017 958 1078 q 986 890 982 990 q 1011 776 990 807 l 986 751 q 1050 653 1028 729 q 1086 526 1068 589 q 1110 597 1100 544 q 1131 669 1121 650 q 1192 703 1150 703 q 1211 701 1200 703 l 1136 751 l 1261 801 q 1218 828 1251 828 q 1197 826 1211 828 q 1175 825 1182 825 q 1161 826 1167 825 l 1186 901 q 1218 873 1194 900 q 1263 846 1242 846 q 1286 851 1274 846 q 1326 896 1326 871 q 1310 935 1326 910 q 1286 976 1290 965 l 1186 976 q 1226 1022 1204 981 q 1276 1060 1247 1060 q 1311 1051 1292 1060 q 1461 851 1317 929 l 1436 826 q 1476 800 1468 800 q 1486 801 1482 800 m 710 701 l 710 751 l 660 701 l 635 726 l 635 701 l 710 701 z "},"X":{"ha":1328,"x_min":135,"x_max":1215,"o":"m 1215 36 l 1115 36 q 1117 44 1117 40 q 1090 86 1117 54 q 890 7 1033 7 q 840 11 865 7 q 763 144 801 78 q 664 286 710 235 l 514 36 q 460 40 488 40 q 330 23 414 40 q 199 6 246 6 q 139 11 168 6 q 135 44 135 28 q 239 211 135 115 q 307 236 274 206 q 363 301 328 254 q 414 361 397 349 q 374 388 382 388 q 364 386 368 388 q 443 560 443 460 q 431 668 443 597 q 414 788 417 749 q 354 817 397 810 q 289 838 304 824 l 289 888 q 303 889 294 889 q 324 887 310 889 q 346 885 339 885 q 389 913 379 885 q 335 939 374 939 q 308 938 326 939 q 282 936 290 936 q 264 938 271 936 l 264 963 l 439 938 q 438 928 438 932 q 464 888 438 919 l 539 963 q 432 993 507 985 q 322 1013 344 1004 q 264 1088 269 1032 q 460 1076 361 1082 q 589 988 571 1060 l 564 963 q 597 939 574 943 q 639 938 604 938 l 614 863 q 735 838 654 863 q 856 813 817 813 q 965 863 921 813 q 964 876 964 868 q 965 898 964 883 q 967 919 967 913 q 940 963 967 951 q 913 922 913 931 q 915 913 913 917 q 889 906 900 906 q 847 947 864 906 q 814 988 831 988 q 842 1028 842 1019 q 840 1038 842 1032 l 890 1038 q 888 1028 888 1032 q 915 988 888 1019 q 939 1019 936 997 q 940 1063 940 1022 l 1015 1063 q 1010 1033 1010 1046 q 1064 990 1010 999 q 1140 963 1126 981 q 1090 910 1142 910 q 1068 911 1083 910 q 1044 913 1053 913 q 990 888 1004 913 l 1040 813 q 997 811 1000 813 q 965 788 975 808 q 989 754 986 778 q 990 711 990 751 q 960 708 976 708 q 915 712 944 708 q 871 715 885 715 q 789 661 810 715 q 843 635 804 635 q 869 636 851 635 q 897 638 888 638 q 915 636 907 638 q 879 574 901 594 q 814 536 867 564 l 890 486 l 664 436 q 740 401 694 401 q 761 403 747 401 q 782 403 775 403 q 840 386 817 403 q 907 413 860 413 q 938 411 917 413 q 969 410 958 410 q 990 411 981 410 l 940 361 l 1040 286 q 1015 285 1029 285 q 980 286 1004 285 q 943 288 956 288 q 865 261 890 288 l 865 236 q 968 210 900 210 q 1014 211 983 210 q 1058 213 1044 213 q 1090 211 1076 213 q 1089 201 1089 206 q 1115 161 1089 193 q 1131 163 1124 163 q 1182 114 1163 163 q 1215 36 1211 42 m 539 286 q 529 288 535 288 q 489 261 521 288 q 476 299 493 286 q 432 313 458 313 q 414 311 422 313 l 539 286 z "},"Y":{"ha":1285,"x_min":176,"x_max":1158,"o":"m 1154 1042 q 1158 1019 1158 1029 q 1117 974 1158 992 q 1053 942 1061 949 q 1094 914 1085 914 q 1103 917 1099 914 q 1107 896 1107 904 q 1063 864 1107 864 q 1039 865 1056 864 q 1014 867 1022 867 q 953 842 967 867 l 928 867 q 860 815 903 811 q 781 842 821 829 q 703 817 733 854 q 849 769 744 774 q 1003 740 964 764 q 947 675 1013 694 q 819 658 917 665 q 749 638 749 651 q 853 565 749 618 l 903 565 q 844 440 911 468 q 701 415 840 439 q 578 340 608 400 q 751 239 600 239 q 803 240 772 239 q 728 190 806 203 l 703 215 q 676 175 676 183 q 719 139 676 139 q 778 140 785 139 q 702 115 774 118 q 631 86 631 111 q 653 40 631 69 l 703 40 l 453 15 q 436 107 436 56 q 458 261 436 160 q 481 406 481 363 q 328 565 481 535 l 403 615 q 360 642 392 642 q 338 640 353 642 q 317 639 324 639 q 303 640 308 639 q 344 672 303 656 q 385 713 385 688 q 378 740 385 725 q 310 768 357 768 q 279 767 300 768 q 249 765 258 765 q 226 767 236 765 l 226 817 q 251 818 238 818 q 287 816 263 818 q 324 814 311 814 q 403 842 378 814 l 328 917 q 306 888 308 913 q 292 863 303 863 q 276 867 286 863 l 176 867 q 200 921 196 885 q 203 981 201 929 q 251 1067 203 1053 q 328 983 250 1017 q 428 917 415 946 l 503 967 q 553 882 553 949 q 551 851 553 872 q 550 819 550 829 q 628 740 550 744 q 678 801 660 758 q 708 867 703 860 q 778 892 731 896 q 754 924 758 901 q 753 967 753 931 q 794 968 789 967 q 828 992 818 972 l 828 1067 l 903 992 q 928 1024 924 1001 q 928 1067 928 1026 l 1154 1042 m 803 290 l 703 290 l 703 340 q 744 327 719 343 q 785 311 769 311 q 803 315 793 311 l 803 290 z "},"Z":{"ha":1314,"x_min":224,"x_max":1214,"o":"m 338 1065 q 311 1017 340 1017 q 267 1035 292 1017 q 238 1065 242 1054 l 338 1065 m 1214 63 l 1114 13 q 1068 93 1090 53 q 988 150 1035 150 q 938 138 965 150 q 801 38 903 38 q 705 49 771 38 q 607 60 639 60 q 488 13 531 60 q 460 17 478 17 q 410 13 446 17 q 353 10 374 10 q 238 63 267 10 q 250 61 243 61 q 333 102 276 61 q 424 143 390 143 q 488 113 456 143 q 513 146 508 122 q 513 188 513 147 q 386 215 472 215 q 333 214 367 215 q 288 213 300 213 q 263 214 272 213 l 263 163 q 224 217 224 188 q 258 288 224 242 q 313 364 303 344 q 338 358 325 358 q 389 381 361 358 q 438 414 426 408 q 432 432 432 421 q 474 518 432 458 q 538 614 528 594 q 617 643 594 607 q 647 724 632 683 q 713 789 667 774 q 681 814 703 810 q 638 814 678 814 q 565 890 626 871 q 463 918 514 904 q 413 1014 410 943 l 388 1014 q 401 1053 383 1039 q 444 1067 418 1067 q 463 1065 454 1067 q 546 1014 489 1010 q 654 1040 600 1026 q 763 1014 722 1053 q 847 1057 806 1057 q 935 1024 878 1057 q 1024 992 992 992 q 1089 1014 1056 992 q 1164 964 1167 1001 l 1139 939 q 1190 842 1190 904 q 1189 814 1190 829 l 1114 764 q 1115 775 1115 769 q 1094 808 1115 790 q 1064 839 1067 835 l 964 789 q 1006 763 974 763 q 1028 764 1013 763 q 1050 765 1043 765 q 1064 764 1057 765 l 863 714 q 915 664 881 658 q 976 689 946 676 q 1039 664 1015 701 q 986 585 1029 628 q 913 514 950 550 q 889 513 903 513 q 853 514 878 513 q 817 515 829 515 q 738 489 763 515 q 781 463 749 463 q 802 464 788 463 q 824 465 817 465 q 838 464 832 465 q 766 385 803 425 q 663 339 729 346 q 587 313 658 317 q 515 285 515 310 q 538 239 515 268 q 578 265 569 265 q 588 264 583 265 l 613 239 l 964 239 q 1001 192 958 197 q 1064 163 1054 185 l 1214 63 m 338 939 l 238 964 l 338 964 l 338 939 z "},"a":{"ha":1133,"x_min":47,"x_max":1079,"o":"m 1079 125 l 1031 125 q 1036 151 1036 140 q 1006 193 1036 176 q 957 224 961 218 q 850 174 918 174 q 719 199 810 174 q 588 224 629 224 q 519 174 578 179 q 418 169 468 171 q 365 99 365 158 q 367 76 365 89 l 318 76 q 318 117 318 115 q 293 150 314 140 q 269 157 282 157 q 233 140 256 157 q 201 124 211 124 q 171 150 185 124 q 135 122 154 122 q 85 160 114 122 q 47 199 56 199 q 343 346 276 235 q 310 371 333 367 q 269 371 308 371 l 269 394 l 318 394 q 317 386 317 390 q 343 346 317 378 q 351 344 347 344 q 392 371 360 344 q 360 439 376 404 q 304 476 338 476 q 269 469 289 476 l 219 617 q 261 617 254 617 q 293 640 283 622 q 293 682 293 681 q 269 714 289 704 l 244 714 q 239 743 239 731 q 301 801 239 783 q 363 842 363 819 q 343 886 363 858 q 303 860 311 860 q 295 863 299 860 q 292 871 292 867 q 318 911 292 879 q 328 913 322 913 q 367 886 336 913 q 393 917 393 899 q 368 958 393 933 q 343 985 343 983 q 422 1003 365 1017 q 507 983 503 983 q 539 1058 544 988 q 658 1060 524 1060 q 760 1033 725 1060 l 760 935 q 750 938 756 938 q 711 911 742 938 q 805 874 771 907 q 839 786 839 842 q 833 739 839 764 q 751 740 844 740 q 686 714 707 740 q 778 663 711 663 q 826 665 794 663 q 874 668 858 668 q 907 665 893 668 l 957 444 q 875 446 967 446 q 810 419 829 446 q 836 342 803 369 q 907 297 872 319 l 1031 297 l 957 247 q 1043 210 1040 213 q 1079 125 1079 185 m 1006 76 q 954 35 994 51 q 868 19 914 19 q 760 100 756 19 l 1006 76 m 171 51 l 97 76 l 171 76 l 171 51 m 638 419 q 608 553 608 522 q 613 617 608 574 l 564 665 q 569 632 569 647 q 513 552 569 592 q 456 485 456 513 q 490 419 456 458 q 571 393 524 393 q 638 419 615 393 m 539 224 l 539 247 l 440 247 l 539 224 z "},"b":{"ha":1289,"x_min":168,"x_max":1153,"o":"m 1151 246 q 1112 181 1149 210 q 1075 121 1075 153 q 1078 99 1075 111 q 1018 96 1051 96 q 933 99 990 96 q 849 103 876 103 q 685 50 729 103 q 628 58 657 58 q 559 49 601 58 q 501 40 517 40 q 439 75 463 40 q 415 42 419 65 q 414 1 414 36 q 353 17 383 8 q 289 25 314 25 q 218 1 246 25 l 267 50 q 200 113 200 71 q 216 169 200 132 q 232 221 232 206 q 168 271 232 258 q 292 393 194 368 q 197 471 269 471 q 168 467 183 471 l 168 860 q 179 858 174 858 q 213 878 194 858 q 242 910 238 907 q 210 933 233 931 q 168 933 208 933 l 168 983 q 200 982 185 982 q 357 1022 264 982 q 500 1061 450 1061 q 611 1032 553 1061 q 782 1060 685 1060 q 954 1032 881 1060 q 953 1022 953 1028 q 979 983 953 1014 l 1053 983 q 914 956 1007 956 q 758 983 821 956 q 718 957 726 957 q 708 958 714 957 l 660 1007 q 579 1021 651 1007 q 458 1035 507 1035 q 414 1032 435 1035 l 389 1007 q 432 982 400 982 q 488 983 494 982 l 365 933 q 407 908 375 908 q 464 910 469 908 q 461 900 461 904 q 488 860 461 892 q 668 910 571 910 q 897 865 750 910 q 1126 811 1057 817 l 1053 738 q 1092 711 1083 711 q 1101 713 1097 711 q 1051 629 1101 656 q 954 590 1003 610 q 1039 554 1003 592 q 1092 478 1050 543 q 1151 418 1121 431 q 1138 378 1153 401 q 1122 339 1122 354 q 1126 319 1122 329 q 1085 346 1107 346 q 1031 322 1067 346 q 979 296 996 299 q 1054 246 999 247 q 1151 246 1103 246 m 782 713 q 750 760 763 731 q 733 811 742 785 q 558 781 688 793 q 389 738 444 769 q 421 731 404 731 q 473 745 440 731 q 519 760 506 760 q 561 738 543 760 q 563 728 563 732 q 538 689 563 719 q 563 657 563 675 q 538 616 563 640 q 513 590 513 592 q 549 576 533 576 q 590 609 571 576 q 621 642 608 642 q 660 615 636 642 q 721 664 699 613 q 782 713 743 715 m 856 542 q 815 542 821 542 q 782 565 792 546 l 782 517 q 706 453 763 507 q 614 408 660 408 q 561 418 590 408 l 561 271 q 604 267 582 267 q 706 283 638 267 q 807 296 769 297 l 782 369 q 814 424 799 400 q 825 443 825 439 q 814 461 825 446 q 782 517 799 485 q 815 540 792 538 q 856 542 817 542 m 315 319 l 218 296 l 292 296 l 315 319 z "},"c":{"ha":1200,"x_min":83,"x_max":1115,"o":"m 1115 804 l 993 731 q 1019 690 1019 699 q 1018 681 1019 686 l 968 731 q 947 702 950 726 q 933 678 944 678 q 919 681 928 678 q 885 679 900 679 q 830 696 849 679 q 797 756 811 713 l 821 779 q 721 828 771 803 q 613 854 658 854 q 526 829 567 854 q 500 789 500 797 q 501 779 500 785 q 462 793 486 778 q 422 808 438 808 q 404 804 414 808 q 379 765 379 786 q 393 723 379 751 q 407 676 407 694 q 404 657 407 667 l 331 731 q 304 689 304 711 q 328 635 304 671 q 354 583 353 600 q 401 596 383 596 q 429 550 429 596 q 429 535 429 546 q 429 519 429 525 q 453 460 429 472 l 331 411 q 360 381 335 408 q 393 361 378 361 q 404 363 399 361 q 356 313 408 313 q 345 313 351 313 q 335 313 339 313 q 281 289 293 313 q 328 264 319 292 q 335 211 331 238 q 379 190 340 185 l 404 215 l 379 239 q 406 264 379 261 q 457 268 432 267 q 478 313 482 278 q 543 258 499 307 q 610 214 583 214 q 674 264 640 214 q 717 256 697 256 q 788 300 761 256 q 821 386 799 318 l 821 411 q 882 389 849 389 q 951 403 904 389 q 1025 418 997 418 q 1067 411 1046 418 l 1042 239 q 1033 238 1038 238 q 993 264 1025 238 q 933 213 990 213 q 908 214 925 213 q 883 215 892 215 q 821 190 838 215 q 922 164 856 164 q 1042 165 1057 164 q 994 110 1019 163 q 935 57 969 57 q 894 67 918 57 q 651 93 800 110 q 421 69 436 69 q 232 165 300 74 q 278 203 272 160 q 306 264 285 254 q 265 290 274 290 q 257 289 261 290 q 233 256 238 279 q 232 215 232 250 q 201 210 214 210 q 160 235 174 210 q 133 289 146 261 l 158 313 q 114 333 122 313 q 109 383 110 343 q 85 436 108 424 l 158 485 q 126 508 149 506 q 85 510 124 510 q 83 518 83 514 q 110 558 83 526 q 83 600 83 568 q 85 657 83 664 q 94 656 89 656 q 133 681 103 656 q 124 761 124 728 q 183 903 124 832 q 233 940 208 940 q 272 931 244 940 q 318 921 299 921 q 354 926 336 921 q 439 1017 390 947 q 519 1072 476 1072 q 600 1050 553 1072 q 599 993 599 1057 q 625 951 599 961 l 674 1000 q 650 1033 654 1010 q 649 1074 649 1039 q 726 1100 674 1100 q 821 1099 833 1100 q 822 1089 822 1094 q 797 1050 822 1081 q 1000 972 899 1011 q 1115 804 1115 917 m 722 -7 l 526 -7 q 615 21 543 18 q 722 43 696 24 l 722 -7 z "},"d":{"ha":1311,"x_min":174,"x_max":1213,"o":"m 424 1115 q 372 1090 415 1114 q 303 1065 329 1065 q 251 1090 274 1065 l 228 1065 l 178 1115 l 424 1115 m 1210 674 q 1210 597 1206 656 q 1203 526 1213 546 q 1136 501 1188 496 q 1094 501 1096 501 q 1063 476 1071 497 q 1104 450 1072 450 q 1160 451 1167 450 q 1107 406 1107 431 q 1135 360 1107 392 q 1164 310 1164 328 q 1111 256 1164 282 q 958 222 1058 231 q 792 207 815 211 q 864 150 815 150 q 914 156 878 150 q 972 163 950 163 q 1013 157 993 163 q 667 57 922 57 q 571 60 631 57 q 572 68 572 64 q 546 108 572 76 q 501 81 532 104 q 456 58 469 58 q 424 108 433 58 q 397 68 397 76 q 399 60 397 64 q 349 49 371 49 q 254 103 299 49 q 178 182 194 172 l 178 231 q 219 232 213 231 q 251 256 242 236 q 251 297 251 294 q 228 329 247 319 q 201 289 201 297 q 203 281 201 285 q 174 361 174 296 q 203 451 174 424 l 228 476 q 188 503 196 503 q 178 501 183 503 l 178 550 q 199 547 189 547 q 239 565 219 547 q 276 600 258 582 q 214 668 232 636 q 178 747 211 672 q 188 749 183 749 q 228 722 196 749 q 288 749 254 749 q 350 734 308 749 q 413 719 392 719 q 472 747 446 719 q 361 796 446 796 q 313 794 344 796 q 268 792 282 792 q 176 867 176 792 q 178 894 176 879 q 257 922 194 917 q 325 968 311 926 q 293 992 315 988 q 251 992 292 992 q 365 1017 281 992 q 492 1042 449 1042 q 596 992 561 1042 l 644 992 q 643 983 643 988 q 669 943 643 975 l 743 968 q 742 958 742 963 q 767 918 742 950 q 776 917 772 917 q 817 943 785 917 l 743 1115 q 868 1085 794 1121 q 989 1042 950 1044 l 915 992 q 1022 943 946 950 q 1136 928 1122 935 q 1185 821 1188 906 q 1129 771 1178 771 q 1077 778 1111 771 q 1033 786 1043 786 q 1013 768 1013 786 q 1038 697 1013 747 q 1068 715 1053 715 q 1114 689 1082 715 q 1172 663 1146 663 q 1210 674 1190 663 m 915 600 l 817 674 l 865 722 q 800 781 815 725 q 767 869 778 858 q 710 821 751 815 q 628 844 669 832 q 546 821 576 857 l 571 796 q 582 740 582 764 q 533 668 582 690 q 432 646 506 657 q 350 624 367 638 q 469 625 335 625 q 571 600 536 625 q 572 529 572 608 q 546 476 572 492 q 538 475 542 475 q 497 501 529 475 q 471 469 471 481 q 497 449 471 463 q 524 415 524 435 q 522 403 524 410 q 469 376 507 376 q 399 378 390 376 l 424 354 q 476 381 438 381 q 546 378 556 381 q 572 339 572 347 q 571 329 572 335 q 626 324 601 324 q 733 353 676 324 q 842 403 808 393 l 817 428 q 843 469 811 458 q 890 501 883 483 l 865 501 q 839 540 839 532 q 842 550 839 546 q 922 604 882 576 l 922 604 q 915 600 921 603 m 644 231 q 522 244 575 244 q 399 231 469 244 q 372 271 372 263 q 375 281 372 275 l 325 281 l 325 231 q 435 206 361 231 q 544 182 510 182 q 644 231 604 182 z "},"e":{"ha":1108,"x_min":157,"x_max":1050,"o":"m 1001 1046 l 903 1071 l 1001 1071 l 1001 1046 m 829 850 l 731 874 l 829 874 l 829 850 m 1050 89 l 1026 64 l 976 113 q 939 50 950 63 q 878 15 921 28 l 829 64 q 788 38 819 38 q 731 39 725 38 l 707 64 q 681 24 681 32 q 682 15 681 19 l 633 15 q 632 24 632 19 q 657 64 632 32 q 643 65 650 65 q 553 36 619 65 q 442 7 488 7 q 388 15 414 7 q 336 3 357 3 q 265 88 285 3 q 215 211 242 190 q 225 210 221 210 q 265 236 233 210 l 215 285 q 176 258 185 258 q 167 260 171 258 l 215 310 q 164 406 164 343 q 167 432 164 418 q 231 453 182 444 q 289 482 274 458 q 236 507 275 507 q 167 506 157 507 q 183 551 183 525 q 173 608 183 568 q 163 669 163 647 q 167 703 163 686 q 236 701 157 701 q 289 726 275 701 q 193 778 256 778 q 167 776 181 778 q 167 904 167 840 q 197 1026 171 988 q 314 1071 232 1079 q 608 972 449 969 q 635 1013 635 1004 q 633 1022 635 1017 q 693 994 663 994 q 779 1034 728 994 q 849 1074 831 1074 q 903 997 882 1074 l 953 997 q 950 988 950 992 q 976 947 950 979 l 1026 947 q 1031 918 1031 931 q 1005 876 1031 890 q 953 850 979 863 l 1001 899 l 903 972 q 876 933 876 942 q 878 924 876 928 l 829 924 q 831 933 831 928 q 804 972 831 942 q 696 922 750 947 q 633 825 638 888 q 563 826 642 826 q 510 800 525 826 l 510 703 l 953 653 l 953 604 q 882 606 961 606 q 829 579 844 606 q 889 550 847 557 q 953 531 936 543 q 886 503 949 508 q 824 461 824 499 q 829 432 824 449 q 699 438 794 454 q 560 457 604 422 q 526 399 556 444 q 506 338 506 364 q 510 310 506 324 l 535 285 q 511 253 515 275 q 510 211 510 246 q 550 185 542 185 q 560 186 554 185 q 583 219 579 196 q 583 260 583 221 q 625 260 624 260 q 657 236 649 257 q 693 263 674 263 q 731 248 706 263 q 768 233 756 233 q 804 260 789 233 l 1050 89 z "},"f":{"ha":1097,"x_min":153,"x_max":1004,"o":"m 1004 813 l 931 813 q 929 822 929 817 q 949 856 929 839 q 979 886 976 882 q 947 910 969 907 q 906 910 946 910 l 931 983 q 954 957 951 983 q 960 906 957 931 q 1004 886 968 881 l 1004 813 m 906 592 l 832 615 l 906 615 l 906 592 m 832 886 q 728 861 797 846 q 611 885 669 872 q 513 813 546 885 q 539 771 539 801 q 538 714 539 707 q 535 686 535 701 q 554 597 535 643 q 611 518 575 546 l 685 592 q 658 631 658 622 q 660 640 658 635 q 658 629 658 635 q 671 601 658 614 q 699 589 683 589 q 710 592 704 589 l 783 592 q 757 489 757 507 q 758 468 757 479 q 749 469 754 469 q 710 444 740 469 q 749 418 740 418 q 758 419 754 418 q 721 389 757 399 q 660 369 671 376 l 660 444 q 701 444 694 444 q 733 468 725 449 l 685 542 q 635 493 686 493 q 619 493 631 493 q 604 493 608 493 q 538 444 547 493 q 567 413 542 440 q 601 393 585 393 q 611 394 606 393 q 600 396 606 396 q 555 356 581 396 q 511 317 529 317 q 464 346 490 317 q 471 372 471 361 q 439 414 471 396 q 390 444 394 439 q 328 417 381 424 q 292 369 286 410 q 335 325 297 336 q 401 315 340 324 q 436 294 436 311 q 415 247 436 278 q 447 224 424 228 q 489 222 454 222 q 490 182 489 188 q 513 149 494 158 l 538 149 l 538 100 q 528 101 533 101 q 489 75 519 101 l 513 1 l 268 26 q 317 101 317 56 q 276 190 317 144 q 193 247 239 231 l 169 247 q 208 425 206 415 q 292 567 239 524 q 318 564 306 564 q 415 615 381 564 l 415 640 q 301 667 375 667 q 169 665 153 667 l 169 1057 q 233 1067 201 1067 q 404 1012 297 1067 q 575 957 511 957 q 611 960 593 957 q 651 986 643 986 q 660 983 656 986 l 611 935 q 722 909 642 910 q 832 886 801 908 m 243 100 l 169 125 l 243 125 l 243 100 z "},"g":{"ha":1440,"x_min":132,"x_max":1246,"o":"m 1238 163 q 1118 113 1193 113 q 1000 132 1078 113 q 893 151 922 151 q 796 15 800 151 q 679 44 733 44 q 586 28 644 44 q 493 13 528 13 q 378 40 439 13 q 269 156 368 65 q 183 292 183 235 q 231 383 183 338 q 232 393 232 389 q 206 432 232 401 l 157 432 l 157 556 q 226 554 149 554 q 281 581 265 554 l 206 654 q 181 614 181 622 q 182 604 181 610 q 172 603 176 603 q 132 629 164 603 q 169 763 151 696 q 238 904 197 856 q 378 972 292 971 l 451 899 l 501 972 l 403 1046 q 697 1101 550 1101 q 992 1046 844 1101 q 1036 985 992 1011 q 1090 949 1086 957 l 918 949 q 919 957 919 953 q 893 997 919 965 q 871 965 875 988 q 869 924 869 958 q 908 897 900 897 q 918 899 914 897 q 919 890 919 894 q 893 850 919 882 l 943 801 q 1099 878 979 878 q 1139 875 1119 878 q 1185 806 1181 860 q 1213 728 1190 744 l 869 703 q 842 782 875 754 q 771 825 807 804 q 729 826 736 825 q 697 850 707 831 l 672 825 q 619 851 658 851 q 550 850 542 851 l 525 825 q 550 797 550 814 q 537 764 550 788 q 525 728 524 740 q 497 636 497 710 q 501 560 497 614 q 504 482 504 507 q 501 432 504 453 q 450 397 450 419 q 490 342 450 383 q 529 276 529 301 q 525 261 529 268 q 607 263 515 263 q 672 236 653 263 q 675 226 675 232 q 649 188 675 218 q 690 161 658 161 q 746 163 753 161 l 771 188 q 731 214 739 214 q 722 211 726 214 q 849 313 769 231 q 968 432 908 372 q 932 460 967 433 q 894 476 908 476 q 869 457 879 476 l 869 432 l 819 432 l 819 482 q 861 483 856 482 q 893 507 885 488 q 828 532 874 532 q 746 531 736 532 l 746 604 q 815 610 781 610 q 937 599 860 610 q 1053 588 1014 588 q 1164 604 1111 588 q 1163 594 1163 600 q 1189 556 1163 586 q 1228 582 1219 582 q 1238 581 1233 582 q 1211 543 1211 563 q 1228 504 1211 532 q 1246 460 1246 476 q 1238 432 1246 446 q 1228 435 1233 435 q 1189 408 1219 435 q 1240 299 1240 360 q 1238 256 1240 286 q 1235 207 1235 226 q 1238 163 1235 185 m 1213 40 q 1083 11 1169 11 q 968 64 988 11 q 1081 38 1007 38 q 1213 40 1231 38 m 992 751 m 869 825 l 844 850 q 843 860 843 854 q 869 899 843 868 l 844 875 q 789 874 851 874 q 746 899 757 874 q 808 867 753 883 q 869 825 864 851 m 428 629 l 231 654 q 317 603 247 603 q 428 629 369 603 z "},"h":{"ha":1182,"x_min":82,"x_max":1126,"o":"m 1018 1075 q 961 1026 1000 1026 q 893 1043 942 1026 q 817 1060 844 1060 q 772 1051 793 1060 l 772 1100 l 1018 1075 m 1117 118 q 1094 119 1106 119 q 972 80 1049 119 q 856 40 894 40 q 772 69 814 40 q 825 96 776 93 q 896 118 881 100 q 928 106 907 106 q 1018 143 967 106 l 1043 167 q 950 242 1022 242 q 886 233 928 242 q 832 224 844 224 q 800 256 800 224 q 822 339 800 283 l 650 536 q 591 499 626 539 q 539 460 556 460 q 503 486 521 460 q 467 460 486 460 q 429 474 454 460 q 392 489 404 489 q 356 463 372 489 q 433 349 433 431 q 429 290 433 329 q 425 232 425 251 q 429 192 425 210 q 347 190 439 190 q 282 217 303 190 q 281 225 281 221 q 307 265 281 233 q 210 306 278 272 q 110 339 150 335 q 136 442 136 422 q 135 463 136 451 q 94 488 103 488 q 85 486 90 488 l 135 536 q 94 561 103 561 q 85 560 90 561 l 233 633 q 193 660 201 660 q 183 658 189 660 l 183 683 l 257 633 l 331 732 q 261 776 314 738 q 189 807 217 807 q 135 781 160 807 q 133 790 133 786 q 160 831 133 799 q 126 854 150 850 q 85 854 125 854 q 83 911 83 849 q 110 953 83 943 l 208 928 q 242 999 221 943 q 282 1051 260 1044 q 283 1042 283 1046 q 257 1001 283 1033 q 351 996 281 981 q 454 978 422 1011 q 407 961 438 961 q 383 963 399 961 q 360 964 367 964 q 307 904 313 964 q 365 854 306 854 q 385 856 372 854 q 404 856 397 856 q 458 814 458 856 q 454 781 458 800 q 544 739 494 739 q 618 751 567 739 q 699 764 669 764 q 749 757 724 764 q 775 822 775 776 q 772 904 775 914 l 822 854 q 849 894 849 886 q 847 904 849 899 l 896 831 q 943 863 907 835 q 994 883 971 883 q 1018 879 1006 883 q 1017 869 1017 875 q 1043 831 1017 861 q 1067 863 1064 840 q 1068 904 1068 864 q 1028 931 1036 931 q 1018 928 1024 931 l 1018 953 l 1117 953 q 1122 900 1122 924 q 994 781 1122 796 l 969 757 q 1035 731 990 731 q 1117 732 1126 731 q 1113 674 1113 707 q 1117 587 1113 646 q 1121 499 1121 528 q 1043 339 1121 376 q 1118 250 1118 333 q 1115 202 1118 235 q 1113 154 1113 169 q 1117 118 1113 133 m 404 69 q 379 63 390 63 q 339 103 356 63 q 307 143 322 143 l 404 69 m 257 44 l 85 44 q 92 105 82 86 q 135 143 101 124 q 231 89 172 89 q 257 93 244 89 l 257 44 m 307 438 q 281 476 281 468 q 282 486 281 482 l 257 486 l 257 438 l 307 438 z "},"i":{"ha":611,"x_min":138,"x_max":517,"o":"m 510 1051 q 485 999 504 1014 q 440 977 474 988 q 386 954 406 967 q 389 963 389 958 q 363 1003 389 971 q 339 971 343 993 q 338 929 338 964 q 211 975 267 940 q 142 1076 146 1018 q 188 1085 164 1085 q 267 1067 217 1085 q 343 1050 318 1050 q 411 1076 379 1050 q 453 1064 428 1079 q 492 1049 478 1049 q 510 1051 500 1049 m 485 831 q 435 796 449 833 q 411 733 411 733 q 371 774 371 747 q 382 818 371 786 q 393 871 393 850 q 386 904 393 889 q 413 911 401 911 q 453 871 436 911 q 485 831 469 831 m 338 881 q 264 733 321 835 q 224 746 247 731 q 185 761 200 761 q 165 757 175 761 q 167 799 165 792 q 190 831 171 821 q 157 858 182 849 q 138 883 138 868 q 142 904 138 892 l 338 881 m 510 21 l 460 69 q 343 18 433 18 q 276 21 321 18 q 211 24 232 24 q 165 21 185 24 l 142 46 q 165 78 161 54 q 165 119 165 79 q 185 124 175 124 q 228 110 200 124 q 265 97 256 97 q 289 143 286 97 q 201 172 238 140 q 164 249 164 204 q 190 315 164 283 q 226 311 208 311 q 308 332 261 311 q 386 364 369 360 l 338 414 q 296 392 318 392 q 249 406 282 392 q 196 421 217 421 q 165 414 181 421 l 264 463 q 210 488 226 468 q 190 533 200 500 q 165 585 179 567 q 257 624 197 588 q 349 661 317 661 q 411 635 381 661 q 453 661 421 661 q 510 660 517 661 q 510 618 510 619 q 485 585 506 594 q 515 529 515 550 q 447 488 515 504 q 363 438 374 469 q 428 392 382 399 q 510 389 468 390 q 415 343 486 363 q 303 304 328 318 q 239 217 247 274 q 314 143 257 143 q 413 169 342 143 q 510 193 479 194 l 411 119 q 474 82 463 92 q 510 21 496 63 z "},"j":{"ha":1017,"x_min":78,"x_max":913,"o":"m 913 410 l 765 361 l 889 311 q 894 275 894 293 q 815 139 894 208 l 765 189 q 705 114 744 169 q 639 36 665 58 q 546 3 597 3 q 471 17 511 3 l 447 42 q 415 14 426 14 q 394 41 408 14 q 360 68 381 68 q 349 65 354 68 q 210 67 279 67 q 103 139 131 72 q 96 168 96 156 q 139 208 96 196 q 201 238 192 225 q 263 311 204 281 q 324 385 321 342 q 189 461 299 461 q 151 458 171 461 l 151 483 l 299 458 q 297 450 297 454 q 324 410 297 442 l 374 410 q 348 383 372 408 q 324 342 324 358 q 349 311 324 325 l 374 336 l 496 213 q 522 256 522 224 q 521 311 522 318 q 561 313 556 311 q 594 336 585 317 q 560 403 576 369 q 542 476 542 442 q 544 508 542 492 l 643 557 l 544 631 l 618 679 q 567 715 590 686 q 544 775 544 743 q 569 826 544 806 l 544 1024 l 618 876 q 701 956 664 879 q 771 1033 739 1033 q 839 999 799 1033 q 879 1025 871 1025 q 889 1024 883 1025 l 889 925 q 853 937 876 924 q 819 950 829 950 q 790 925 801 950 l 790 901 q 733 899 797 899 q 692 925 703 899 q 667 886 667 894 q 668 876 667 881 q 769 850 703 850 q 889 851 904 850 l 889 778 q 847 778 849 778 q 815 753 825 774 q 878 706 857 750 q 913 631 896 668 l 864 582 l 913 532 q 860 508 901 508 q 849 508 856 508 q 839 508 842 508 q 790 458 786 508 l 913 410 m 176 311 l 78 311 l 128 385 q 176 311 164 388 z "},"k":{"ha":1444,"x_min":204,"x_max":1322,"o":"m 1253 1039 l 1179 1064 l 1253 1064 l 1253 1039 m 1300 25 q 1133 24 1322 24 q 986 50 1039 24 q 946 24 976 24 q 890 25 883 24 q 769 292 760 181 q 738 315 760 311 q 697 315 736 315 q 671 368 699 342 q 625 413 647 390 q 556 317 567 382 q 553 194 556 317 q 479 218 524 218 q 407 194 436 218 l 383 171 q 460 144 407 144 q 553 146 564 144 l 553 74 l 383 74 q 335 124 385 124 q 314 124 328 124 q 292 122 299 122 q 239 146 251 122 l 214 436 q 294 435 204 435 q 360 460 339 435 q 294 486 339 486 q 214 485 204 486 l 214 653 q 269 651 208 651 q 311 678 301 651 l 214 750 q 278 769 231 763 q 335 799 319 775 q 303 849 322 810 q 263 894 285 881 l 214 894 q 213 950 213 888 q 239 992 213 981 l 214 1015 q 292 1040 247 1040 q 389 1024 321 1040 q 496 1007 457 1007 q 553 1015 525 1007 q 499 988 550 999 q 449 947 449 976 q 456 918 449 935 l 504 871 l 528 894 l 576 774 q 718 846 678 767 q 771 993 744 919 q 914 1064 811 1071 l 1179 992 q 1093 878 1167 936 q 968 779 1031 829 q 903 660 903 721 q 914 606 903 633 q 857 550 907 588 q 814 490 814 518 q 842 436 814 467 q 865 468 863 446 q 865 508 865 469 q 932 476 879 504 q 1003 456 972 456 q 1035 460 1018 456 l 1132 267 q 1056 293 1107 293 q 963 292 951 293 q 953 254 953 269 q 1024 215 953 215 q 1068 217 1036 215 q 1115 219 1100 219 q 1204 194 1181 219 l 1156 122 l 1300 25 m 1058 918 l 1058 992 l 986 918 l 1058 918 m 939 219 l 818 219 q 897 194 890 194 q 939 219 924 194 z "},"l":{"ha":978,"x_min":60,"x_max":911,"o":"m 908 282 q 911 247 911 261 q 836 161 911 183 q 801 156 818 156 q 751 164 782 156 q 707 172 719 172 q 643 138 672 172 q 718 111 667 111 q 811 113 824 111 l 811 40 l 88 40 q 60 135 60 99 q 124 200 60 189 q 244 210 185 206 q 310 254 310 215 q 304 282 310 267 l 232 257 q 233 313 233 251 q 208 354 233 344 q 168 354 169 354 q 136 331 144 350 l 136 306 q 90 374 99 318 q 88 475 88 390 q 121 472 104 472 q 232 547 225 472 q 174 608 225 588 q 88 643 131 626 q 143 769 83 729 q 281 813 182 793 q 217 875 249 844 q 129 918 172 918 q 88 910 108 918 q 157 972 94 940 q 208 1054 213 1001 q 326 1056 193 1056 q 425 1029 392 1056 q 339 978 417 982 q 232 933 253 974 q 307 908 254 908 q 329 910 314 908 q 351 910 344 910 q 425 885 403 910 l 425 789 q 339 813 378 813 q 231 772 296 813 q 111 717 157 726 q 236 665 150 665 q 297 668 256 665 q 358 671 339 671 q 401 668 382 671 l 353 619 q 431 519 431 607 q 426 458 431 500 q 421 394 421 415 q 425 354 421 371 q 385 354 386 354 q 353 331 363 350 q 349 306 349 318 q 369 256 349 283 q 401 210 397 219 q 817 285 567 285 q 908 282 863 285 z "},"m":{"ha":1444,"x_min":126,"x_max":1347,"o":"m 1342 814 l 1293 814 q 1342 886 1306 890 l 1342 814 m 328 1079 q 256 1053 318 1053 q 183 1079 192 1053 l 328 1079 m 1342 114 q 1301 114 1303 114 q 1269 90 1278 111 q 1308 64 1300 64 q 1317 67 1313 64 l 1317 42 l 1269 90 q 1179 38 1247 38 q 1076 67 1124 38 q 1026 243 1026 115 q 1026 297 1026 261 q 1028 351 1028 333 q 1004 500 1028 449 q 924 304 949 407 q 883 90 904 197 q 851 99 868 99 q 785 69 826 99 q 729 40 743 40 q 690 90 704 40 q 642 81 663 81 q 583 125 600 81 q 568 221 576 146 q 544 307 561 283 l 472 500 l 449 163 q 368 164 458 164 q 304 139 324 164 q 376 114 315 114 q 296 83 351 107 q 229 67 258 67 q 135 90 192 67 l 207 139 q 175 163 197 158 q 135 163 174 163 l 135 283 q 144 282 139 282 q 183 307 153 282 q 144 333 153 333 q 135 332 139 333 q 133 340 133 336 q 158 381 133 349 q 133 421 133 390 q 135 476 133 483 q 190 475 128 475 q 232 500 221 475 q 132 626 132 496 q 135 669 132 647 q 204 668 126 668 q 256 693 242 668 q 204 719 242 719 q 135 718 126 719 l 135 767 q 175 765 174 767 q 207 742 197 763 q 232 785 232 758 q 222 825 232 800 q 207 863 215 844 l 279 886 q 278 878 278 882 q 304 839 278 869 q 336 889 317 850 q 376 935 353 922 q 338 961 346 961 q 328 960 332 961 l 328 983 q 338 985 332 985 q 376 960 346 985 q 441 970 399 957 q 504 983 483 983 q 569 960 539 983 l 618 911 l 521 863 q 714 525 690 817 l 738 500 q 774 568 756 535 q 786 646 792 608 q 847 807 825 685 q 907 983 869 936 q 1067 1015 910 983 q 1247 1036 1172 1036 q 1317 1032 1283 1036 l 1317 960 q 1281 965 1297 965 q 1208 925 1247 965 q 1124 886 1168 885 q 1228 769 1151 819 q 1342 669 1314 713 q 1317 574 1304 638 q 1342 461 1329 518 q 1293 356 1347 394 q 1344 263 1344 339 q 1341 207 1344 244 q 1338 151 1338 169 q 1342 114 1338 131 m 1149 332 m 376 693 q 342 743 379 729 q 279 767 281 765 l 328 718 l 304 693 l 376 693 m 376 500 l 328 549 l 232 574 l 376 500 m 400 260 l 400 307 q 361 289 382 289 q 296 318 336 289 q 232 356 249 350 q 307 290 257 304 q 400 260 388 267 z "},"n":{"ha":1251,"x_min":125,"x_max":1176,"o":"m 1099 999 q 1018 1022 1076 1022 q 1003 1022 1013 1022 q 989 1022 994 1022 q 906 1071 915 1022 q 1011 1072 892 1072 q 1099 1047 1071 1072 l 1099 999 m 1171 82 q 1029 29 1132 29 q 833 57 964 29 l 592 371 q 614 411 614 394 q 576 453 614 425 q 543 517 539 482 q 535 515 539 515 q 496 540 526 515 q 469 499 469 531 q 471 444 469 438 q 415 446 478 446 q 375 419 385 446 q 438 374 383 407 q 481 315 481 349 q 471 275 481 297 q 431 275 432 275 q 399 251 408 271 q 397 242 397 246 q 424 203 397 233 l 447 226 q 472 171 472 219 q 471 82 472 72 q 463 81 467 81 q 424 106 454 81 q 397 67 397 75 q 399 57 397 63 l 303 131 q 282 103 285 126 q 268 79 279 79 q 254 82 263 79 q 219 79 235 79 q 133 154 158 79 l 133 226 q 206 251 193 226 q 207 260 207 256 q 182 299 207 268 l 133 299 l 133 371 q 203 369 125 369 q 254 396 240 369 q 160 446 221 446 q 133 444 147 446 l 133 517 q 203 515 125 515 q 254 540 240 515 q 256 550 256 544 q 231 589 256 558 q 188 578 204 578 q 150 629 156 578 q 133 710 142 697 l 182 757 q 131 828 131 764 q 133 874 131 842 q 136 919 136 906 q 133 950 136 938 q 400 1075 200 1075 q 471 1071 435 1075 q 626 832 518 978 q 810 589 718 711 q 815 635 815 606 q 809 718 815 658 q 803 808 803 778 q 906 950 803 940 q 874 975 896 971 q 833 975 872 975 l 833 999 q 969 981 856 988 q 1075 926 1056 975 q 1106 950 1083 947 q 1147 950 1108 950 q 1161 900 1161 926 q 1157 865 1161 888 q 1153 831 1153 842 q 1171 782 1153 804 q 1121 703 1121 760 q 1147 638 1121 663 l 1171 613 q 1099 533 1099 597 q 1101 497 1099 521 q 1104 461 1104 472 q 1026 396 1104 400 l 1003 371 l 954 419 l 906 347 q 1014 319 949 319 q 1122 347 1079 319 l 1122 371 q 1132 374 1128 374 q 1171 347 1140 374 q 1131 347 1132 347 q 1099 324 1108 343 q 1144 292 1106 306 q 1171 251 1176 282 l 1122 203 l 1147 178 l 882 131 q 994 106 919 106 q 1026 106 1004 106 q 1058 107 1049 107 q 1171 82 1133 107 z "},"o":{"ha":1350,"x_min":146,"x_max":1247,"o":"m 1233 433 q 1114 192 1211 297 q 996 193 1129 193 q 896 168 931 193 q 968 143 908 143 q 967 135 967 139 q 993 96 967 126 l 1040 96 l 1040 71 q 968 96 981 71 q 928 51 961 61 q 872 22 886 40 q 767 53 819 38 q 657 71 701 71 q 558 47 601 71 q 457 -4 514 -4 q 438 -1 447 -4 l 365 96 q 421 93 358 93 q 464 129 464 93 q 438 168 464 136 q 364 217 410 168 q 297 267 318 267 q 244 215 269 267 l 147 336 l 172 361 q 146 413 146 385 q 157 458 146 428 q 168 504 168 489 q 147 554 168 531 l 221 601 q 189 626 211 622 q 147 626 186 626 l 147 699 q 221 722 208 699 q 196 776 196 746 q 214 836 196 801 q 244 892 229 864 q 607 1061 432 1058 q 606 1051 606 1056 q 631 1013 606 1043 l 679 1085 q 678 1075 678 1081 q 703 1036 678 1067 l 728 1061 q 771 994 724 1010 q 861 976 815 985 q 921 915 914 961 l 1017 989 q 1018 979 1018 983 q 993 940 1018 971 q 1044 914 1007 914 q 1114 915 1122 914 q 1076 886 1113 894 q 1017 868 1026 874 q 967 915 999 915 q 906 892 947 915 q 847 868 865 868 q 839 869 843 869 q 800 843 831 869 q 981 818 863 818 q 1161 819 1181 818 l 1210 699 q 1192 694 1201 694 q 1149 708 1176 694 q 1113 721 1121 721 q 1089 675 1092 721 q 1149 650 1108 656 q 1208 639 1196 644 q 1233 578 1233 625 l 1233 529 q 1128 531 1247 531 q 1040 506 1069 531 q 1093 481 1056 481 q 1161 482 1171 481 q 1160 472 1160 476 q 1186 433 1160 464 l 1233 433 m 896 771 l 824 771 q 799 810 799 801 q 800 819 799 814 q 688 796 761 793 q 569 808 628 801 q 510 794 514 814 q 536 768 536 786 q 501 717 536 746 l 501 717 q 510 722 503 717 q 511 579 511 736 q 486 433 511 482 q 431 432 493 432 q 389 457 399 432 q 390 449 390 453 q 365 408 390 440 q 293 433 304 408 q 254 407 263 407 q 244 408 249 407 q 358 385 283 385 q 388 385 368 385 q 417 386 407 386 q 558 336 517 386 q 558 296 558 297 q 535 264 554 274 q 569 238 550 238 q 606 252 582 238 q 643 267 631 267 q 679 240 663 267 l 703 264 q 743 264 742 264 q 775 240 767 260 q 804 271 779 243 q 838 290 822 290 q 847 289 843 290 q 817 325 817 311 q 848 349 817 336 q 879 372 879 361 q 847 408 879 386 q 872 504 872 453 q 850 625 872 547 q 824 747 826 708 q 856 771 833 767 q 896 771 857 771 z "},"p":{"ha":1158,"x_min":97,"x_max":1071,"o":"m 1065 622 q 1010 624 1071 624 q 968 597 978 624 l 968 550 q 918 575 946 575 q 879 566 904 575 q 843 557 854 557 q 799 597 817 557 l 726 525 l 775 476 q 826 503 789 503 q 896 501 904 503 l 919 476 q 961 503 929 503 q 1017 501 1024 503 q 872 411 968 439 q 682 381 808 392 q 486 357 538 367 q 460 292 460 336 q 461 211 460 201 q 346 261 440 261 q 317 260 331 261 q 293 188 293 247 q 322 157 297 185 q 356 138 339 138 q 365 139 360 138 q 371 115 371 126 q 339 64 371 90 q 293 18 299 29 q 179 17 236 18 q 124 90 117 21 q 125 100 125 96 q 99 139 125 108 q 125 181 125 149 q 124 236 125 242 q 196 260 183 236 q 143 285 160 265 q 123 329 133 296 q 99 381 113 363 q 108 379 104 379 q 147 404 117 379 q 128 485 146 428 q 111 564 111 538 q 196 646 111 626 q 197 656 197 650 q 172 694 197 664 l 124 694 q 122 703 122 699 q 147 743 122 711 q 117 772 144 747 q 97 806 97 789 q 99 815 97 810 q 131 839 108 835 q 172 839 133 839 q 292 838 161 838 q 413 863 375 838 q 374 889 382 889 q 365 888 369 889 l 413 936 q 367 967 403 940 q 317 988 339 988 q 293 983 304 988 q 294 993 294 989 q 268 1032 294 1001 q 222 1000 257 1028 q 171 979 194 979 q 147 983 160 979 l 124 1056 l 799 1056 q 788 1021 801 1044 q 775 988 775 997 q 799 960 775 971 q 881 992 847 992 q 936 968 908 992 q 992 911 964 939 l 1040 839 q 985 840 1047 840 q 944 815 954 840 q 1026 765 1000 815 q 1065 669 1046 718 l 1065 622 m 896 669 q 844 661 869 661 q 701 735 786 661 q 557 808 615 808 q 486 790 524 808 l 486 622 l 558 622 q 583 583 583 590 q 582 574 583 578 l 679 574 l 654 597 q 754 665 676 653 q 896 669 760 667 m 244 67 l 244 90 l 172 90 l 244 67 z "},"q":{"ha":1258,"x_min":65,"x_max":1181,"o":"m 1179 617 q 1181 561 1181 624 q 1156 521 1181 531 q 1157 488 1157 506 q 1107 279 1157 364 q 1067 279 1068 279 q 1035 256 1044 275 q 1083 183 1038 226 q 1131 110 1128 139 q 1010 138 1082 138 q 890 110 939 138 q 847 47 882 47 q 811 56 838 47 q 771 64 785 64 q 721 38 740 64 q 540 36 739 36 q 358 63 421 36 l 311 182 l 238 135 q 154 224 175 194 q 115 331 115 275 q 117 351 115 340 l 142 375 l 69 424 l 214 472 l 69 544 q 142 569 129 544 q 110 593 132 589 q 69 593 108 593 q 65 644 65 619 q 150 881 65 774 q 335 1051 200 943 q 504 1078 413 1078 q 756 1043 597 1078 q 986 1003 925 1007 q 988 994 988 999 q 963 956 988 986 q 1036 928 975 936 q 1088 888 1088 919 q 1083 858 1088 875 q 1057 860 1069 860 q 963 810 996 860 q 985 736 982 799 q 1035 689 986 686 l 1083 738 q 1057 776 1057 768 q 1058 786 1057 781 q 1101 797 1083 797 q 1140 746 1133 797 q 1156 665 1149 675 l 1131 642 q 1169 615 1163 615 q 1179 617 1175 615 m 793 496 q 807 597 807 553 q 769 738 807 669 q 613 835 692 835 q 528 810 572 835 q 478 728 503 769 q 450 644 450 678 q 456 617 450 629 q 456 576 456 578 q 431 544 451 554 q 471 442 450 515 q 513 342 492 369 q 603 299 543 299 q 649 303 624 299 l 551 400 q 594 425 551 425 q 600 424 589 425 l 576 449 q 601 501 575 475 q 649 544 625 524 q 692 572 672 572 q 740 535 710 572 q 793 496 769 499 m 793 182 l 793 231 q 765 235 779 235 q 699 222 742 235 q 636 208 656 208 q 576 231 603 208 l 793 182 z "},"r":{"ha":1167,"x_min":121,"x_max":1093,"o":"m 1089 168 q 1043 74 1093 106 q 929 47 1001 47 q 799 72 856 47 q 749 226 749 133 q 750 265 749 244 l 775 289 q 750 361 750 301 l 775 386 q 676 422 742 422 q 578 408 638 422 q 485 386 532 397 l 485 240 q 429 242 492 242 q 389 217 399 242 q 429 192 399 192 q 485 193 492 192 q 392 142 468 142 q 336 144 374 142 q 281 147 299 147 q 243 144 260 147 q 246 153 246 149 q 219 193 246 161 q 193 153 193 161 q 196 144 193 149 q 169 138 181 138 q 121 217 121 138 q 122 240 121 229 l 122 338 q 150 331 138 331 q 190 363 174 331 q 219 410 214 406 q 225 436 225 425 q 185 479 225 465 q 122 507 131 499 l 122 603 q 132 604 128 604 q 171 579 140 604 q 197 631 197 593 q 196 700 197 708 q 167 731 192 703 q 133 749 149 749 q 122 747 128 749 l 122 819 q 161 801 142 801 q 201 818 176 801 q 243 844 232 840 l 243 917 q 326 919 285 918 q 389 965 369 926 q 316 990 371 989 q 243 1013 261 990 q 290 1039 254 1039 q 374 1025 311 1039 q 471 1011 436 1011 q 557 1038 524 1011 q 621 1081 590 1081 q 706 1024 646 1081 q 818 967 767 967 q 896 989 854 967 q 925 958 900 986 q 958 939 942 939 q 968 940 963 939 q 969 932 969 936 q 943 893 969 924 q 986 868 960 868 q 1026 878 1003 868 q 1064 893 1046 885 l 1015 844 q 1076 713 1076 763 q 1064 626 1076 685 q 1044 624 1054 624 q 972 662 1018 624 q 899 700 925 700 q 847 675 874 700 q 893 644 864 656 q 943 626 918 635 l 943 531 q 875 532 953 532 q 822 507 838 532 q 871 457 819 457 q 881 457 874 457 q 890 457 888 457 q 943 433 932 457 q 1044 460 1026 460 q 1064 458 1054 460 q 1038 406 1065 432 q 992 361 1015 383 q 1054 325 1042 335 q 1089 265 1075 306 l 968 193 l 1040 119 q 1065 160 1065 151 q 1064 168 1065 164 l 1089 168 m 678 940 l 654 965 q 582 915 649 915 q 557 917 574 915 q 533 917 540 917 q 461 868 467 917 l 678 940 m 750 724 q 568 822 743 822 q 510 819 544 822 q 454 769 518 769 q 436 772 444 769 q 501 710 489 771 q 557 626 515 640 q 660 660 608 643 q 750 724 718 683 z "},"s":{"ha":1211,"x_min":193,"x_max":1125,"o":"m 1117 279 q 1043 256 1089 243 q 972 279 1007 267 q 924 231 935 283 q 988 206 943 206 q 1068 207 1078 206 q 972 107 1072 107 q 929 108 958 107 q 885 110 900 110 q 778 63 806 110 q 818 36 810 36 q 826 38 822 36 q 756 13 808 13 q 633 38 697 13 q 632 47 632 43 q 658 86 632 56 q 626 110 649 107 q 585 110 624 110 q 560 71 560 79 q 561 63 560 67 q 492 61 569 61 q 440 86 454 61 q 401 60 410 60 q 392 63 397 60 l 392 110 q 447 108 386 108 q 489 135 479 108 q 413 158 464 154 q 333 169 349 164 q 271 231 290 185 q 235 296 257 247 q 199 375 199 375 q 197 367 197 371 q 224 328 197 358 q 353 381 254 381 q 513 351 432 381 q 511 333 511 342 q 544 275 511 293 q 613 255 561 265 q 682 231 664 244 q 744 285 693 258 q 789 336 789 307 q 778 375 789 353 q 624 426 717 426 q 585 424 606 426 q 588 433 588 429 q 561 472 588 442 q 533 449 550 449 q 500 461 524 449 q 464 472 476 474 q 399 521 458 521 q 376 521 392 521 q 353 519 361 519 q 271 569 288 519 l 392 642 q 361 665 383 661 q 319 665 358 665 l 319 714 q 329 713 325 713 q 368 738 338 713 q 336 761 358 758 q 296 763 335 763 q 271 689 271 750 q 222 736 267 697 q 193 796 193 763 q 199 835 193 813 l 296 882 l 224 956 q 367 1006 265 1006 q 407 1004 379 1006 q 449 1003 435 1003 q 561 1028 522 1003 q 560 1018 560 1022 q 585 979 560 1010 q 611 1021 611 989 q 610 1075 611 1082 l 561 1124 q 771 1107 706 1121 q 947 1003 893 1081 q 988 1003 986 1003 q 1019 979 1010 999 l 1019 907 q 964 908 1026 908 q 921 874 921 908 q 947 835 921 865 l 1068 858 l 1068 786 q 1058 785 1063 785 q 1019 810 1050 785 q 939 786 990 774 q 858 810 899 799 q 803 763 818 815 l 731 810 l 875 858 q 775 906 835 906 q 667 883 740 906 q 561 858 594 860 q 536 808 536 835 q 563 741 536 788 q 585 665 589 694 q 624 668 606 668 q 777 613 689 668 q 925 558 865 558 q 996 569 958 558 q 994 560 994 564 q 1019 521 994 551 l 1068 521 l 1068 449 q 1028 447 1029 449 q 996 424 1004 444 q 1047 399 1010 399 q 1117 400 1125 399 q 1118 390 1118 394 q 1092 351 1118 382 q 1115 319 1113 342 q 1117 279 1117 318 z "},"t":{"ha":1356,"x_min":190,"x_max":1192,"o":"m 1192 1026 q 1174 1025 1185 1025 q 1147 1026 1165 1025 q 1121 1028 1129 1028 q 1067 1001 1082 1028 l 1167 876 q 1038 851 1131 860 q 910 826 946 843 q 842 726 850 799 q 765 697 790 732 q 717 626 739 663 q 711 593 711 607 q 764 550 711 550 q 792 551 774 550 q 818 553 810 553 q 871 508 871 553 q 867 476 871 494 q 843 475 856 475 q 806 476 831 475 q 771 478 782 478 q 692 451 717 478 q 693 408 692 415 q 717 375 697 385 l 742 375 l 667 300 l 692 275 q 628 234 663 278 q 560 190 593 190 q 517 200 540 190 l 517 300 q 574 299 508 299 q 618 336 618 299 q 592 375 618 343 l 517 375 q 518 397 518 385 q 516 428 518 407 q 514 458 514 449 q 542 526 514 506 q 517 558 522 536 q 517 601 517 565 q 558 603 551 601 q 592 626 582 607 q 558 651 582 647 q 517 651 557 651 q 521 708 515 671 q 526 761 526 746 q 440 826 526 829 q 315 799 390 799 q 190 826 242 799 l 190 1076 q 263 1081 224 1081 q 401 1074 310 1081 q 533 1067 492 1067 q 642 1076 596 1067 l 692 1026 q 842 1052 735 1051 q 992 1076 949 1053 q 993 1035 992 1042 q 1017 1001 997 1011 q 1042 1035 1038 1011 q 1042 1076 1042 1036 l 1192 1076 l 1192 1026 m 892 150 q 831 99 889 99 q 806 99 822 99 q 779 100 789 100 q 717 75 733 100 q 792 49 735 50 q 867 25 849 49 l 867 0 q 692 26 807 26 q 620 25 667 26 q 554 24 574 24 q 517 25 532 24 q 540 101 536 39 q 592 150 544 150 q 633 137 608 153 q 672 121 658 121 q 692 125 682 121 q 714 144 714 135 q 701 165 714 150 q 688 189 688 179 q 692 200 688 194 q 722 197 704 197 q 766 201 736 197 q 811 204 796 204 q 892 150 872 204 z "},"u":{"ha":1185,"x_min":64,"x_max":1124,"o":"m 393 1097 q 318 1069 383 1069 q 243 1097 253 1069 l 393 1097 m 1119 596 q 1110 599 1114 599 q 1069 571 1101 599 q 1074 550 1074 560 q 1032 503 1074 521 q 969 471 976 478 l 1019 421 l 919 371 q 1004 339 953 350 q 1094 321 1049 329 q 1014 285 1088 313 q 944 221 951 261 q 989 196 960 196 q 1031 206 1006 196 q 1069 221 1050 213 q 743 -4 1031 46 q 697 0 726 0 q 618 -5 675 0 q 531 -10 561 -10 q 368 71 401 -10 q 431 99 378 92 q 468 146 474 104 l 393 221 q 328 140 372 204 q 243 96 301 103 q 231 131 231 114 q 262 185 231 153 q 293 233 293 217 q 268 271 293 251 q 207 228 233 228 q 153 261 188 228 q 93 296 118 294 l 93 346 q 122 342 107 342 q 218 421 194 342 q 147 458 182 440 q 68 471 106 476 q 143 521 64 508 q 168 501 153 501 q 207 519 183 501 q 243 546 243 546 q 175 582 208 564 q 100 600 135 600 q 68 596 85 600 l 68 897 q 76 896 72 896 q 118 922 86 896 q 94 954 99 932 q 93 997 93 961 q 176 975 125 975 q 281 988 213 975 q 376 1001 350 1001 q 453 919 453 1001 q 443 847 453 889 l 443 496 q 401 496 403 496 q 368 471 378 492 q 464 331 415 400 q 607 242 528 242 q 643 246 625 242 q 717 317 681 282 q 768 396 760 360 l 743 421 l 793 471 l 768 496 q 783 494 776 494 q 870 560 818 494 q 969 621 922 625 q 914 668 942 644 q 847 697 876 697 q 793 672 819 697 l 768 672 q 764 690 764 681 q 778 735 764 707 q 792 772 792 764 q 743 797 792 794 q 771 850 757 824 q 813 876 785 876 q 844 872 826 876 q 876 860 856 860 q 969 897 917 860 q 879 924 939 924 q 838 922 865 924 q 797 921 810 921 q 768 922 781 921 q 767 932 767 926 q 793 972 767 940 q 769 1001 769 983 q 783 1035 769 1011 q 793 1072 796 1060 q 832 1071 811 1071 q 888 1072 850 1071 q 943 1074 925 1074 q 1069 1047 1025 1074 q 1090 1075 1088 1050 q 1106 1100 1093 1100 q 1119 1097 1111 1100 q 1108 1029 1108 1063 q 1116 964 1108 1007 q 1124 893 1124 921 q 1119 847 1124 871 q 1076 847 1079 847 q 1044 822 1054 843 q 1069 789 1065 813 q 1069 747 1069 788 l 1044 722 q 1075 690 1049 718 q 1108 669 1093 669 q 1119 672 1114 669 l 1119 596 m 318 822 q 300 826 308 826 q 260 810 285 826 q 218 797 235 794 q 232 799 224 799 q 253 797 239 799 q 275 796 268 796 q 318 822 307 796 m 768 121 q 747 122 760 122 q 717 121 738 122 q 685 119 696 119 q 618 146 639 119 q 707 117 629 117 q 768 121 735 117 z "},"v":{"ha":1196,"x_min":97,"x_max":1099,"o":"m 1099 1079 q 1074 967 1085 1046 q 1049 856 1063 889 q 974 779 1025 800 l 999 754 l 924 654 q 935 593 935 625 q 891 440 935 543 q 849 278 847 336 q 786 179 803 260 q 747 53 767 78 q 628 29 715 56 q 492 3 535 3 q 372 78 407 3 q 336 116 354 96 q 318 157 318 136 q 322 178 318 167 l 347 203 q 307 229 315 229 q 297 228 301 229 l 372 303 q 274 356 338 356 q 247 353 261 356 l 297 403 q 233 442 246 431 q 197 504 211 461 q 248 527 225 497 q 271 593 271 557 q 222 654 271 647 q 307 656 265 656 q 372 704 353 664 q 335 731 356 731 q 297 716 322 731 q 258 701 272 701 q 222 729 239 701 q 193 704 210 704 q 159 717 183 704 q 122 729 135 731 l 97 804 q 160 831 99 822 q 222 861 222 839 q 197 904 222 876 l 147 904 q 143 933 143 919 q 222 1029 143 1007 l 322 929 q 349 969 349 961 q 347 979 349 975 l 422 929 q 471 699 425 829 q 547 478 510 589 l 672 554 q 632 581 640 581 q 622 579 628 581 q 660 772 642 675 q 772 888 692 888 q 824 879 796 888 q 850 919 850 911 q 849 929 850 924 q 785 954 800 926 q 772 1017 778 965 q 747 1079 768 1060 l 849 1079 q 846 1069 846 1075 q 874 1029 846 1061 q 900 1069 900 1061 q 899 1079 900 1075 q 908 1081 903 1081 q 949 1054 917 1081 q 985 1082 965 1082 q 1023 1067 997 1082 q 1061 1053 1049 1053 q 1099 1079 1082 1053 m 799 403 l 672 428 q 710 417 686 431 q 744 404 733 404 q 772 428 761 404 l 799 403 z "},"w":{"ha":1575,"x_min":81,"x_max":1486,"o":"m 1486 801 l 1411 751 q 1451 725 1443 725 q 1461 726 1457 725 q 1436 606 1447 690 q 1411 486 1425 521 q 1336 400 1389 425 q 1332 381 1332 390 q 1347 333 1332 363 q 1363 290 1363 303 q 1336 250 1363 268 q 1326 249 1332 249 q 1286 275 1318 249 q 1243 231 1278 239 q 1186 200 1200 219 q 1311 75 1286 175 q 1267 48 1297 72 q 1221 24 1238 24 q 1186 50 1203 24 q 1101 0 1153 0 q 1006 25 1071 0 q 911 50 942 50 q 999 89 926 68 q 1061 150 1057 106 q 1013 144 1033 144 q 919 190 950 144 q 882 294 904 215 q 836 400 863 368 l 836 451 q 844 449 840 449 q 886 476 854 449 l 811 526 q 710 50 717 286 q 618 8 681 8 q 590 10 608 8 q 561 11 571 11 q 510 0 529 11 q 482 -8 496 -8 q 438 9 465 -8 q 397 26 410 26 q 360 0 378 26 q 285 200 279 39 q 294 199 289 199 q 335 225 303 199 q 336 235 336 231 q 310 275 336 243 l 260 275 q 256 304 256 290 q 276 367 256 332 q 310 426 306 413 q 267 453 299 453 q 245 451 260 453 q 224 450 231 450 q 210 451 215 450 q 218 482 218 467 q 201 535 218 503 q 183 583 183 568 q 210 626 183 606 q 146 738 167 653 q 110 876 128 807 l 160 926 q 81 1044 81 942 q 85 1076 81 1061 q 144 1081 114 1081 q 292 1060 204 1081 q 435 1026 406 1031 l 360 976 q 393 953 369 957 q 435 951 400 951 q 421 896 421 925 q 456 781 421 857 q 492 664 492 706 q 460 576 492 618 l 535 501 q 568 592 539 519 q 589 686 589 646 q 585 726 589 706 q 594 725 590 725 q 635 751 603 725 q 608 788 608 768 q 623 826 608 801 q 638 864 638 851 q 610 901 638 885 q 665 926 622 926 q 676 926 669 926 q 686 926 682 926 q 735 976 739 926 q 744 978 740 978 q 786 951 753 978 q 813 994 813 963 q 811 1016 813 1001 q 810 1038 810 1031 q 811 1051 810 1046 q 904 1078 867 1078 q 975 1017 958 1078 q 986 890 982 990 q 1011 776 990 807 l 986 751 q 1050 653 1028 729 q 1086 526 1068 589 q 1110 597 1100 544 q 1131 669 1121 650 q 1192 703 1150 703 q 1211 701 1200 703 l 1136 751 l 1261 801 q 1218 828 1251 828 q 1197 826 1211 828 q 1175 825 1182 825 q 1161 826 1167 825 l 1186 901 q 1218 873 1194 900 q 1263 846 1242 846 q 1286 851 1274 846 q 1326 896 1326 871 q 1310 935 1326 910 q 1286 976 1290 965 l 1186 976 q 1226 1022 1204 981 q 1276 1060 1247 1060 q 1311 1051 1292 1060 q 1461 851 1317 929 l 1436 826 q 1476 800 1468 800 q 1486 801 1482 800 m 710 701 l 710 751 l 660 701 l 635 726 l 635 701 l 710 701 z "},"x":{"ha":1328,"x_min":135,"x_max":1215,"o":"m 1215 36 l 1115 36 q 1117 44 1117 40 q 1090 86 1117 54 q 890 7 1033 7 q 840 11 865 7 q 763 144 801 78 q 664 286 710 235 l 514 36 q 460 40 488 40 q 330 23 414 40 q 199 6 246 6 q 139 11 168 6 q 135 44 135 28 q 239 211 135 115 q 307 236 274 206 q 363 301 328 254 q 414 361 397 349 q 374 388 382 388 q 364 386 368 388 q 443 560 443 460 q 431 668 443 597 q 414 788 417 749 q 354 817 397 810 q 289 838 304 824 l 289 888 q 303 889 294 889 q 324 887 310 889 q 346 885 339 885 q 389 913 379 885 q 335 939 374 939 q 308 938 326 939 q 282 936 290 936 q 264 938 271 936 l 264 963 l 439 938 q 438 928 438 932 q 464 888 438 919 l 539 963 q 432 993 507 985 q 322 1013 344 1004 q 264 1088 269 1032 q 460 1076 361 1082 q 589 988 571 1060 l 564 963 q 597 939 574 943 q 639 938 604 938 l 614 863 q 735 838 654 863 q 856 813 817 813 q 965 863 921 813 q 964 876 964 868 q 965 898 964 883 q 967 919 967 913 q 940 963 967 951 q 913 922 913 931 q 915 913 913 917 q 889 906 900 906 q 847 947 864 906 q 814 988 831 988 q 842 1028 842 1019 q 840 1038 842 1032 l 890 1038 q 888 1028 888 1032 q 915 988 888 1019 q 939 1019 936 997 q 940 1063 940 1022 l 1015 1063 q 1010 1033 1010 1046 q 1064 990 1010 999 q 1140 963 1126 981 q 1090 910 1142 910 q 1068 911 1083 910 q 1044 913 1053 913 q 990 888 1004 913 l 1040 813 q 997 811 1000 813 q 965 788 975 808 q 989 754 986 778 q 990 711 990 751 q 960 708 976 708 q 915 712 944 708 q 871 715 885 715 q 789 661 810 715 q 843 635 804 635 q 869 636 851 635 q 897 638 888 638 q 915 636 907 638 q 879 574 901 594 q 814 536 867 564 l 890 486 l 664 436 q 740 401 694 401 q 761 403 747 401 q 782 403 775 403 q 840 386 817 403 q 907 413 860 413 q 938 411 917 413 q 969 410 958 410 q 990 411 981 410 l 940 361 l 1040 286 q 1015 285 1029 285 q 980 286 1004 285 q 943 288 956 288 q 865 261 890 288 l 865 236 q 968 210 900 210 q 1014 211 983 210 q 1058 213 1044 213 q 1090 211 1076 213 q 1089 201 1089 206 q 1115 161 1089 193 q 1131 163 1124 163 q 1182 114 1163 163 q 1215 36 1211 42 m 539 286 q 529 288 535 288 q 489 261 521 288 q 476 299 493 286 q 432 313 458 313 q 414 311 422 313 l 539 286 z "},"y":{"ha":1285,"x_min":176,"x_max":1158,"o":"m 1154 1042 q 1158 1019 1158 1029 q 1117 974 1158 992 q 1053 942 1061 949 q 1094 914 1085 914 q 1103 917 1099 914 q 1107 896 1107 904 q 1063 864 1107 864 q 1039 865 1056 864 q 1014 867 1022 867 q 953 842 967 867 l 928 867 q 860 815 903 811 q 781 842 821 829 q 703 817 733 854 q 849 769 744 774 q 1003 740 964 764 q 947 675 1013 694 q 819 658 917 665 q 749 638 749 651 q 853 565 749 618 l 903 565 q 844 440 911 468 q 701 415 840 439 q 578 340 608 400 q 751 239 600 239 q 803 240 772 239 q 728 190 806 203 l 703 215 q 676 175 676 183 q 719 139 676 139 q 778 140 785 139 q 702 115 774 118 q 631 86 631 111 q 653 40 631 69 l 703 40 l 453 15 q 436 107 436 56 q 458 261 436 160 q 481 406 481 363 q 328 565 481 535 l 403 615 q 360 642 392 642 q 338 640 353 642 q 317 639 324 639 q 303 640 308 639 q 344 672 303 656 q 385 713 385 688 q 378 740 385 725 q 310 768 357 768 q 279 767 300 768 q 249 765 258 765 q 226 767 236 765 l 226 817 q 251 818 238 818 q 287 816 263 818 q 324 814 311 814 q 403 842 378 814 l 328 917 q 306 888 308 913 q 292 863 303 863 q 276 867 286 863 l 176 867 q 200 921 196 885 q 203 981 201 929 q 251 1067 203 1053 q 328 983 250 1017 q 428 917 415 946 l 503 967 q 553 882 553 949 q 551 851 553 872 q 550 819 550 829 q 628 740 550 744 q 678 801 660 758 q 708 867 703 860 q 778 892 731 896 q 754 924 758 901 q 753 967 753 931 q 794 968 789 967 q 828 992 818 972 l 828 1067 l 903 992 q 928 1024 924 1001 q 928 1067 928 1026 l 1154 1042 m 803 290 l 703 290 l 703 340 q 744 327 719 343 q 785 311 769 311 q 803 315 793 311 l 803 290 z "},"z":{"ha":1314,"x_min":224,"x_max":1214,"o":"m 338 1065 q 311 1017 340 1017 q 267 1035 292 1017 q 238 1065 242 1054 l 338 1065 m 1214 63 l 1114 13 q 1068 93 1090 53 q 988 150 1035 150 q 938 138 965 150 q 801 38 903 38 q 705 49 771 38 q 607 60 639 60 q 488 13 531 60 q 460 17 478 17 q 410 13 446 17 q 353 10 374 10 q 238 63 267 10 q 250 61 243 61 q 333 102 276 61 q 424 143 390 143 q 488 113 456 143 q 513 146 508 122 q 513 188 513 147 q 386 215 472 215 q 333 214 367 215 q 288 213 300 213 q 263 214 272 213 l 263 163 q 224 217 224 188 q 258 288 224 242 q 313 364 303 344 q 338 358 325 358 q 389 381 361 358 q 438 414 426 408 q 432 432 432 421 q 474 518 432 458 q 538 614 528 594 q 617 643 594 607 q 647 724 632 683 q 713 789 667 774 q 681 814 703 810 q 638 814 678 814 q 565 890 626 871 q 463 918 514 904 q 413 1014 410 943 l 388 1014 q 401 1053 383 1039 q 444 1067 418 1067 q 463 1065 454 1067 q 546 1014 489 1010 q 654 1040 600 1026 q 763 1014 722 1053 q 847 1057 806 1057 q 935 1024 878 1057 q 1024 992 992 992 q 1089 1014 1056 992 q 1164 964 1167 1001 l 1139 939 q 1190 842 1190 904 q 1189 814 1190 829 l 1114 764 q 1115 775 1115 769 q 1094 808 1115 790 q 1064 839 1067 835 l 964 789 q 1006 763 974 763 q 1028 764 1013 763 q 1050 765 1043 765 q 1064 764 1057 765 l 863 714 q 915 664 881 658 q 976 689 946 676 q 1039 664 1015 701 q 986 585 1029 628 q 913 514 950 550 q 889 513 903 513 q 853 514 878 513 q 817 515 829 515 q 738 489 763 515 q 781 463 749 463 q 802 464 788 463 q 824 465 817 465 q 838 464 832 465 q 766 385 803 425 q 663 339 729 346 q 587 313 658 317 q 515 285 515 310 q 538 239 515 268 q 578 265 569 265 q 588 264 583 265 l 613 239 l 964 239 q 1001 192 958 197 q 1064 163 1054 185 l 1214 63 m 338 939 l 238 964 l 338 964 l 338 939 z "},"~":{"ha":624,"x_min":75,"x_max":529,"o":"m 529 856 q 469 776 513 843 q 396 817 460 817 q 332 796 354 817 q 243 857 288 826 q 133 894 190 893 l 133 954 q 153 958 144 958 q 190 926 171 958 q 232 894 208 894 q 290 938 239 938 q 327 935 301 938 q 365 932 353 932 q 390 935 381 932 q 426 918 419 935 q 430 879 429 911 q 450 836 431 847 q 483 847 464 835 q 514 858 503 858 q 529 856 522 858 m 114 836 l 94 776 l 75 796 q 94 836 97 825 l 114 836 z "},"":{"ha":990,"x_min":42,"x_max":953,"o":"m 953 643 q 933 663 953 643 q 900 683 913 683 q 875 663 885 683 q 824 704 842 657 q 796 781 810 743 l 815 801 q 668 907 742 854 q 499 979 579 969 q 460 958 471 956 l 419 999 q 329 914 361 936 q 222 881 275 875 l 201 881 q 223 901 203 881 q 243 933 243 921 q 222 958 243 949 q 265 988 243 953 q 303 1022 288 1022 q 340 999 319 1022 q 394 1018 354 1018 q 422 1017 403 1018 q 450 1015 442 1015 q 500 1057 500 1015 q 499 1078 500 1067 l 538 1078 q 536 1057 536 1067 q 586 1015 536 1015 q 614 1017 594 1015 q 643 1018 633 1018 q 696 999 682 1018 q 725 1006 713 1006 q 765 974 747 1006 q 796 939 782 943 l 756 900 q 867 847 831 896 q 910 745 889 819 q 953 643 932 671 m 914 504 q 924 461 924 481 q 878 388 924 428 q 835 307 833 349 q 801 306 803 307 q 775 286 783 303 l 775 267 l 736 307 q 717 267 713 278 l 676 267 l 676 326 q 736 346 726 326 l 736 386 q 775 406 747 382 l 775 444 q 821 478 821 453 q 816 505 821 485 q 811 539 811 525 q 815 564 811 551 q 857 531 822 547 q 914 504 885 518 m 736 524 q 717 485 713 496 l 617 524 l 736 524 m 717 722 l 676 761 l 657 742 l 617 801 q 564 778 593 778 q 501 797 543 778 q 440 815 460 815 q 400 801 418 815 q 419 775 417 793 q 419 742 419 774 q 360 658 360 682 q 381 622 360 639 l 340 622 q 342 672 340 647 q 313 703 340 703 q 281 682 307 703 q 303 622 299 668 q 340 564 307 575 q 381 583 368 588 q 446 482 386 528 q 538 406 526 421 l 578 465 q 638 406 615 443 q 578 425 588 406 l 518 365 l 479 406 q 438 397 457 397 q 353 433 397 397 q 281 504 317 469 q 260 599 260 536 q 261 701 261 707 l 321 742 q 299 767 299 758 q 322 785 299 772 q 340 821 346 799 q 432 874 369 874 q 479 860 460 874 q 521 879 497 879 q 567 869 535 879 q 617 860 600 858 q 682 794 663 846 q 717 722 706 732 m 182 701 q 164 699 172 699 q 124 713 149 699 q 85 726 100 726 q 64 722 75 726 l 122 781 q 152 742 135 778 q 182 701 169 706 m 617 286 q 560 204 589 244 q 479 168 526 164 l 460 267 q 543 265 456 267 q 617 286 593 265 m 222 406 q 189 406 190 406 q 163 386 169 401 l 163 346 l 122 346 q 103 386 126 357 l 163 465 q 86 488 150 478 q 44 543 42 493 q 65 542 56 542 q 143 583 115 542 l 103 622 q 181 535 153 610 q 222 406 201 469 m 419 267 q 324 196 404 196 q 242 228 278 196 l 242 247 q 274 226 267 226 q 301 257 300 226 q 301 307 301 282 l 281 326 q 261 286 257 299 l 201 286 q 197 313 197 300 q 214 354 197 338 q 256 371 231 371 q 281 365 268 371 q 342 301 293 343 q 381 228 378 269 q 400 267 404 256 l 419 267 z "}}}
